<svg id="Layer_1" data-name="Layer 1" xmlns="http://www.w3.org/2000/svg" viewBox="0 0 636.33 116.65"><defs><style>.cls-1{isolation:isolate;}.cls-2{fill:#ffc107;}</style></defs><title>reading-list-logo</title><g class="cls-1"><path class="cls-2" d="M22.76,27.35l.05.16a.41.41,0,0,1,0,.13c0,.29-.16.43-.47.43H14.16a1,1,0,0,1-.58-.2.83.83,0,0,1-.36-.52l-5-7.74v7.74a.82.82,0,0,1-.18.47.55.55,0,0,1-.47.25H1.27a.63.63,0,0,1-.52-.25.78.78,0,0,1-.2-.47V1.76A.64.64,0,0,1,1.27,1H12a8.07,8.07,0,0,1,3.26.67,8.41,8.41,0,0,1,2.66,1.82,8.8,8.8,0,0,1,1.8,2.68,8.17,8.17,0,0,1,.67,3.29A8.64,8.64,0,0,1,19.14,14a7.71,7.71,0,0,1-3.26,3ZM8.25,11.76h2a2.18,2.18,0,0,0,1.53-.67,2.13,2.13,0,0,0,.7-1.6,1.94,1.94,0,0,0-.2-.85,2.6,2.6,0,0,0-.5-.72,2.72,2.72,0,0,0-.7-.5,1.83,1.83,0,0,0-.83-.2h-2Z" transform="translate(-0.55 -0.35)"/><path class="cls-2" d="M56.78,27.24a1.14,1.14,0,0,1,.07.32q0,.43-.47.43H49.44a1.08,1.08,0,0,1-.63-.22,1.3,1.3,0,0,1-.45-.54l-1.55-3.49H36.48l-1.55,3.49a1.62,1.62,0,0,1-.49.54,1,1,0,0,1-.59.22H26.9q-.47,0-.47-.43a1.12,1.12,0,0,1,.07-.32L37.85,1.83a1.21,1.21,0,0,1,.68-.65.59.59,0,0,1,.36-.11h5.54a.65.65,0,0,1,.32.11,1.5,1.5,0,0,1,.38.23,1.08,1.08,0,0,1,.31.41ZM44.22,18l-2.59-5.8L39,18Z" transform="translate(-0.55 -0.35)"/><path class="cls-2" d="M71.29.93A13.48,13.48,0,0,1,76,1.77a12,12,0,0,1,4.1,2.54A12.84,12.84,0,0,1,83,8.52a14.48,14.48,0,0,1,1.12,5.9A15.11,15.11,0,0,1,83,20.53a12.18,12.18,0,0,1-2.92,4.18A11.66,11.66,0,0,1,76,27.14a15,15,0,0,1-4.68.83H61.17a.63.63,0,0,1-.52-.25.78.78,0,0,1-.2-.47V1.61q0-.68.72-.68H71.29Zm-.54,18.86a5.82,5.82,0,0,0,1.85-.31,4.43,4.43,0,0,0,1.62-1,4.78,4.78,0,0,0,1.13-1.66,6.2,6.2,0,0,0,.43-2.45,6.15,6.15,0,0,0-.34-2.05,5.16,5.16,0,0,0-1-1.71,4.94,4.94,0,0,0-1.58-1.19A5.65,5.65,0,0,0,70.75,9h-2V19.79Z" transform="translate(-0.55 -0.35)"/><path class="cls-2" d="M96.63,27.32a.69.69,0,0,1-.2.41.61.61,0,0,1-.49.23H88.71a.56.56,0,0,1-.47-.23.71.71,0,0,1-.18-.41V1.68a.68.68,0,0,1,.18-.5A.63.63,0,0,1,88.71,1h7.24a.7.7,0,0,1,.49.18.65.65,0,0,1,.2.5Z" transform="translate(-0.55 -0.35)"/><path class="cls-2" d="M123.24,18a1.25,1.25,0,0,1,1.15.47,2.09,2.09,0,0,1,.29,1.12,5.85,5.85,0,0,1-.63,2.12,9.91,9.91,0,0,1-2,2.81,12.38,12.38,0,0,1-3.53,2.45,12,12,0,0,1-5.26,1h-.14a13.84,13.84,0,0,1-4.68-.9,12.17,12.17,0,0,1-4.1-2.56,13,13,0,0,1-2.93-4.21,14.65,14.65,0,0,1-1.17-5.9v-.14a16.45,16.45,0,0,1,1-5.29,12.76,12.76,0,0,1,2.61-4.23,11.83,11.83,0,0,1,4.05-2.79,13.44,13.44,0,0,1,5.29-1,13.29,13.29,0,0,1,3.74.49,12.39,12.39,0,0,1,2.93,1.26,10.36,10.36,0,0,1,2.18,1.73,12.26,12.26,0,0,1,1.48,1.87A8.14,8.14,0,0,1,124.41,8a4.34,4.34,0,0,1,.27,1.28,2,2,0,0,1-.29,1.1,1.27,1.27,0,0,1-1.15.45h-5.33A5.62,5.62,0,0,0,115.86,9a6.62,6.62,0,0,0-2.74-.7,7.14,7.14,0,0,0-2.11.47,5.44,5.44,0,0,0-1.82,1.15,5.7,5.7,0,0,0-1.28,1.87,6.44,6.44,0,0,0-.49,2.59,6.63,6.63,0,0,0,.4,2.3,5.82,5.82,0,0,0,1.12,1.89,5.29,5.29,0,0,0,1.78,1.3,5.68,5.68,0,0,0,2.39.49,6.38,6.38,0,0,0,2.65-.58A5.14,5.14,0,0,0,117.91,18Z" transform="translate(-0.55 -0.35)"/><path class="cls-2" d="M155.93,27.24a1.14,1.14,0,0,1,.07.32q0,.43-.47.43h-6.95a1.08,1.08,0,0,1-.63-.22,1.3,1.3,0,0,1-.45-.54L146,23.75H135.62l-1.55,3.49a1.62,1.62,0,0,1-.49.54A1,1,0,0,1,133,28H126q-.47,0-.47-.43a1.12,1.12,0,0,1,.07-.32L137,1.83a1.21,1.21,0,0,1,.68-.65.59.59,0,0,1,.36-.11h5.54a.65.65,0,0,1,.32.11,1.5,1.5,0,0,1,.38.23,1.08,1.08,0,0,1,.31.41ZM143.36,18l-2.59-5.8L138.18,18Z" transform="translate(-0.55 -0.35)"/><path class="cls-2" d="M179.5,20v7.31a.78.78,0,0,1-.2.47.6.6,0,0,1-.49.25h-18.5a.64.64,0,0,1-.52-.25.78.78,0,0,1-.2-.47V1.72a.64.64,0,0,1,.72-.72h7.19a.64.64,0,0,1,.72.72v17.6h10.58Q179.5,19.32,179.5,20Z" transform="translate(-0.55 -0.35)"/><path class="cls-2" d="M223.32,27.24a1.15,1.15,0,0,1,.07.32q0,.43-.47.43H216a1.08,1.08,0,0,1-.63-.22,1.3,1.3,0,0,1-.45-.54l-1.55-3.49H203l-1.55,3.49a1.62,1.62,0,0,1-.49.54,1,1,0,0,1-.59.22h-6.95q-.47,0-.47-.43a1.11,1.11,0,0,1,.07-.32L204.38,1.83a1.21,1.21,0,0,1,.68-.65.59.59,0,0,1,.36-.11H211a.65.65,0,0,1,.32.11,1.52,1.52,0,0,1,.38.23,1.08,1.08,0,0,1,.31.41ZM210.75,18l-2.59-5.8L205.57,18Z" transform="translate(-0.55 -0.35)"/><path class="cls-2" d="M248.19,18a1.25,1.25,0,0,1,1.15.47,2.1,2.1,0,0,1,.29,1.12,5.86,5.86,0,0,1-.63,2.12,10,10,0,0,1-2,2.81,12.4,12.4,0,0,1-3.53,2.45,12,12,0,0,1-5.26,1h-.14a13.84,13.84,0,0,1-4.68-.9,12.17,12.17,0,0,1-4.1-2.56,13,13,0,0,1-2.93-4.21,14.65,14.65,0,0,1-1.17-5.9v-.14a16.48,16.48,0,0,1,1-5.29,12.76,12.76,0,0,1,2.61-4.23,11.82,11.82,0,0,1,4-2.79,13.44,13.44,0,0,1,5.29-1,13.29,13.29,0,0,1,3.74.49,12.38,12.38,0,0,1,2.93,1.26A10.34,10.34,0,0,1,247,4.4a12.29,12.29,0,0,1,1.48,1.87A8.11,8.11,0,0,1,249.36,8a4.36,4.36,0,0,1,.27,1.28,2,2,0,0,1-.29,1.1,1.27,1.27,0,0,1-1.15.45h-5.33A5.62,5.62,0,0,0,240.81,9a6.62,6.62,0,0,0-2.74-.7,7.14,7.14,0,0,0-2.11.47,5.43,5.43,0,0,0-1.82,1.15,5.7,5.7,0,0,0-1.28,1.87,6.46,6.46,0,0,0-.49,2.59,6.65,6.65,0,0,0,.4,2.3,5.83,5.83,0,0,0,1.12,1.89,5.29,5.29,0,0,0,1.78,1.3,5.68,5.68,0,0,0,2.39.49,6.38,6.38,0,0,0,2.65-.58A5.14,5.14,0,0,0,242.86,18Z" transform="translate(-0.55 -0.35)"/><path class="cls-2" d="M279,1.18a.82.82,0,0,1,.16.5V8.16a.74.74,0,0,1-.16.49.48.48,0,0,1-.38.2h-8.14v18.4a.74.74,0,0,1-.22.54.69.69,0,0,1-.5.22h-7.17a.75.75,0,0,1-.52-.22.71.71,0,0,1-.23-.54V8.85h-8.14a.45.45,0,0,1-.34-.2.74.74,0,0,1-.16-.49V1.68a.82.82,0,0,1,.16-.5.44.44,0,0,1,.34-.22h24.91A.47.47,0,0,1,279,1.18Z" transform="translate(-0.55 -0.35)"/><path class="cls-2" d="M291.39,27.32a.69.69,0,0,1-.2.41.61.61,0,0,1-.49.23h-7.24a.56.56,0,0,1-.47-.23.71.71,0,0,1-.18-.41V1.68a.68.68,0,0,1,.18-.5.64.64,0,0,1,.47-.18h7.24a.7.7,0,0,1,.49.18.65.65,0,0,1,.2.5Z" transform="translate(-0.55 -0.35)"/><path class="cls-2" d="M308,.93a13.18,13.18,0,0,1,4.64.85,11.84,11.84,0,0,1,4.05,2.54,12.71,12.71,0,0,1,2.88,4.23,14.83,14.83,0,0,1,1.1,5.92,15.23,15.23,0,0,1-1.1,6.07,12.11,12.11,0,0,1-2.88,4.18,11.54,11.54,0,0,1-4.05,2.43A14.64,14.64,0,0,1,308,28h-.14a15,15,0,0,1-4.68-.83,11.64,11.64,0,0,1-4.1-2.43,12.16,12.16,0,0,1-2.92-4.18A15,15,0,0,1,295,14.46a14.6,14.6,0,0,1,1.12-5.92A12.76,12.76,0,0,1,299,4.31a11.94,11.94,0,0,1,4.1-2.54,13.48,13.48,0,0,1,4.68-.85Zm0,18.58a5.38,5.38,0,0,0,1.75-.29,4.27,4.27,0,0,0,1.53-.92,4.63,4.63,0,0,0,1.1-1.58,5.63,5.63,0,0,0,.41-2.25,5.86,5.86,0,0,0-.41-2.3,4.78,4.78,0,0,0-1.1-1.62,4.61,4.61,0,0,0-1.53-1A4.83,4.83,0,0,0,308,9.24h-.14a5,5,0,0,0-1.76.32,4.37,4.37,0,0,0-1.53,1,4.87,4.87,0,0,0-1.08,1.62,5.84,5.84,0,0,0-.41,2.3,5.7,5.7,0,0,0,.32,1.94,4.44,4.44,0,0,0,1,1.57,4.93,4.93,0,0,0,1.51,1.08,5,5,0,0,0,2,.45Z" transform="translate(-0.55 -0.35)"/><path class="cls-2" d="M324.94,1h6.88a1,1,0,0,1,.58.2,1,1,0,0,1,.4.52l9,11.88V1.72a.64.64,0,0,1,.72-.72H349a.64.64,0,0,1,.72.72v25.6a.78.78,0,0,1-.2.47A.63.63,0,0,1,349,28h-7.16a.88.88,0,0,1-.58-.25,1.64,1.64,0,0,1-.4-.47l-8.71-11.74V27.32a.78.78,0,0,1-.2.47.63.63,0,0,1-.52.25h-6.44a.63.63,0,0,1-.52-.25.78.78,0,0,1-.2-.47V1.72A.64.64,0,0,1,324.94,1Z" transform="translate(-0.55 -0.35)"/><path class="cls-2" d="M391.11.93a13.47,13.47,0,0,1,4.68.85,12,12,0,0,1,4.1,2.54,12.84,12.84,0,0,1,2.92,4.21,14.49,14.49,0,0,1,1.12,5.9,15.12,15.12,0,0,1-1.12,6.1,12.19,12.19,0,0,1-2.92,4.18,11.65,11.65,0,0,1-4.1,2.43,15,15,0,0,1-4.68.83H381a.63.63,0,0,1-.52-.25.78.78,0,0,1-.2-.47V1.61q0-.68.72-.68h10.12Zm-.54,18.86a5.83,5.83,0,0,0,1.85-.31,4.43,4.43,0,0,0,1.62-1,4.77,4.77,0,0,0,1.13-1.66,6.2,6.2,0,0,0,.43-2.45,6.15,6.15,0,0,0-.34-2.05,5.17,5.17,0,0,0-1-1.71,4.93,4.93,0,0,0-1.58-1.19A5.65,5.65,0,0,0,390.57,9h-2V19.79Z" transform="translate(-0.55 -0.35)"/><path class="cls-2" d="M416.17,8.2v2.66h6.66a.51.51,0,0,1,.36.2.75.75,0,0,1,.18.52v5.94a.55.55,0,0,1-.18.4.52.52,0,0,1-.36.18h-6.66v2.81h9.47a.68.68,0,0,1,.4.13.51.51,0,0,1,.18.45v5.94a.51.51,0,0,1-.18.45.68.68,0,0,1-.4.13H408.25a.64.64,0,0,1-.72-.72V1.68a.64.64,0,0,1,.72-.72h17.39a.55.55,0,0,1,.4.18.55.55,0,0,1,.18.4V7.48A.74.74,0,0,1,426,8a.53.53,0,0,1-.4.2Z" transform="translate(-0.55 -0.35)"/><path class="cls-2" d="M463.85,1.16a.62.62,0,0,1,.27.52V27.32a.69.69,0,0,1-.27.47.85.85,0,0,1-.59.25h-6.48a.63.63,0,0,1-.52-.25.78.78,0,0,1-.2-.47V14.64l-4.25,12.67a1.51,1.51,0,0,1-.29.4.55.55,0,0,1-.4.18L451,28a.29.29,0,0,1-.18,0h-7.38c-.19,0-.29,0-.29-.14a.87.87,0,0,1-.45-.18,1.07,1.07,0,0,1-.38-.4l-4.1-12.67V27.32a.69.69,0,0,1-.27.47.85.85,0,0,1-.59.25h-6.48a.63.63,0,0,1-.52-.25.78.78,0,0,1-.2-.47V1.68a.64.64,0,0,1,.72-.72h7.92a1,1,0,0,1,.58.2,1,1,0,0,1,.4.52L447.16,18l7.2-16.34A1.36,1.36,0,0,1,455.51,1h7.74A1,1,0,0,1,463.85,1.16Z" transform="translate(-0.55 -0.35)"/><path class="cls-2" d="M481.58.93a13.18,13.18,0,0,1,4.64.85,11.84,11.84,0,0,1,4.05,2.54,12.71,12.71,0,0,1,2.88,4.23,14.83,14.83,0,0,1,1.1,5.92,15.23,15.23,0,0,1-1.1,6.07,12.11,12.11,0,0,1-2.88,4.18,11.54,11.54,0,0,1-4.05,2.43,14.64,14.64,0,0,1-4.64.83h-.14a15,15,0,0,1-4.68-.83,11.64,11.64,0,0,1-4.1-2.43,12.16,12.16,0,0,1-2.92-4.18,15,15,0,0,1-1.12-6.07,14.6,14.6,0,0,1,1.12-5.92,12.76,12.76,0,0,1,2.92-4.23,11.94,11.94,0,0,1,4.1-2.54,13.48,13.48,0,0,1,4.68-.85Zm0,18.58a5.38,5.38,0,0,0,1.75-.29,4.27,4.27,0,0,0,1.53-.92,4.63,4.63,0,0,0,1.1-1.58,5.63,5.63,0,0,0,.41-2.25,5.86,5.86,0,0,0-.41-2.3,4.78,4.78,0,0,0-1.1-1.62,4.61,4.61,0,0,0-1.53-1,4.83,4.83,0,0,0-1.75-.32h-.14a5,5,0,0,0-1.76.32,4.37,4.37,0,0,0-1.53,1,4.87,4.87,0,0,0-1.08,1.62,5.84,5.84,0,0,0-.41,2.3,5.7,5.7,0,0,0,.32,1.94,4.44,4.44,0,0,0,1,1.57,4.93,4.93,0,0,0,1.51,1.08,5,5,0,0,0,2,.45Z" transform="translate(-0.55 -0.35)"/><path class="cls-2" d="M520.85,18a1.25,1.25,0,0,1,1.15.47,2.1,2.1,0,0,1,.29,1.12,5.86,5.86,0,0,1-.63,2.12,10,10,0,0,1-2,2.81,12.4,12.4,0,0,1-3.53,2.45,12,12,0,0,1-5.26,1h-.14a13.84,13.84,0,0,1-4.68-.9,12.17,12.17,0,0,1-4.1-2.56A13,13,0,0,1,499,20.3a14.65,14.65,0,0,1-1.17-5.9v-.14a16.48,16.48,0,0,1,1-5.29,12.76,12.76,0,0,1,2.61-4.23,11.82,11.82,0,0,1,4-2.79,13.44,13.44,0,0,1,5.29-1,13.29,13.29,0,0,1,3.74.49,12.38,12.38,0,0,1,2.93,1.26A10.34,10.34,0,0,1,519.7,4.4a12.29,12.29,0,0,1,1.48,1.87A8.11,8.11,0,0,1,522,8a4.36,4.36,0,0,1,.27,1.28,2,2,0,0,1-.29,1.1,1.27,1.27,0,0,1-1.15.45h-5.33A5.62,5.62,0,0,0,513.47,9a6.62,6.62,0,0,0-2.74-.7,7.14,7.14,0,0,0-2.11.47,5.43,5.43,0,0,0-1.82,1.15,5.7,5.7,0,0,0-1.28,1.87,6.46,6.46,0,0,0-.49,2.59,6.65,6.65,0,0,0,.4,2.3,5.83,5.83,0,0,0,1.12,1.89,5.29,5.29,0,0,0,1.78,1.3,5.68,5.68,0,0,0,2.39.49,6.38,6.38,0,0,0,2.65-.58A5.14,5.14,0,0,0,515.53,18Z" transform="translate(-0.55 -0.35)"/><path class="cls-2" d="M548.11,27.35l.05.16a.41.41,0,0,1,0,.13q0,.43-.47.43H539.5a1,1,0,0,1-.58-.2.83.83,0,0,1-.36-.52l-5-7.74v7.74a.83.83,0,0,1-.18.47.55.55,0,0,1-.47.25h-6.34a.63.63,0,0,1-.52-.25.78.78,0,0,1-.2-.47V1.76a.64.64,0,0,1,.72-.72h10.69a8.07,8.07,0,0,1,3.26.67,8.42,8.42,0,0,1,2.66,1.82A8.8,8.8,0,0,1,545,6.2a8.16,8.16,0,0,1,.67,3.29A8.64,8.64,0,0,1,544.49,14a7.7,7.7,0,0,1-3.26,3ZM533.6,11.76h2a2.18,2.18,0,0,0,1.53-.67,2.13,2.13,0,0,0,.7-1.6,1.94,1.94,0,0,0-.2-.85,2.58,2.58,0,0,0-.5-.72,2.73,2.73,0,0,0-.7-.5,1.83,1.83,0,0,0-.83-.2h-2Z" transform="translate(-0.55 -0.35)"/><path class="cls-2" d="M581.77,27.24a1.15,1.15,0,0,1,.07.32q0,.43-.47.43h-6.95a1.08,1.08,0,0,1-.63-.22,1.3,1.3,0,0,1-.45-.54l-1.55-3.49H561.46l-1.55,3.49a1.62,1.62,0,0,1-.49.54,1,1,0,0,1-.59.22h-6.95q-.47,0-.47-.43a1.11,1.11,0,0,1,.07-.32L562.83,1.83a1.21,1.21,0,0,1,.68-.65.59.59,0,0,1,.36-.11h5.54a.65.65,0,0,1,.32.11,1.52,1.52,0,0,1,.38.23,1.08,1.08,0,0,1,.31.41ZM569.2,18l-2.59-5.8L564,18Z" transform="translate(-0.55 -0.35)"/><path class="cls-2" d="M604.84,18a1.25,1.25,0,0,1,1.15.47,2.1,2.1,0,0,1,.29,1.12,5.86,5.86,0,0,1-.63,2.12,10,10,0,0,1-2,2.81,12.4,12.4,0,0,1-3.53,2.45,12,12,0,0,1-5.26,1h-.14a13.84,13.84,0,0,1-4.68-.9,12.17,12.17,0,0,1-4.1-2.56A13,13,0,0,1,583,20.3a14.65,14.65,0,0,1-1.17-5.9v-.14a16.48,16.48,0,0,1,1-5.29,12.76,12.76,0,0,1,2.61-4.23,11.82,11.82,0,0,1,4-2.79,13.44,13.44,0,0,1,5.29-1,13.29,13.29,0,0,1,3.74.49,12.38,12.38,0,0,1,2.93,1.26,10.34,10.34,0,0,1,2.18,1.73,12.29,12.29,0,0,1,1.48,1.87A8.11,8.11,0,0,1,606,8a4.36,4.36,0,0,1,.27,1.28,2,2,0,0,1-.29,1.1,1.27,1.27,0,0,1-1.15.45h-5.33A5.62,5.62,0,0,0,597.46,9a6.62,6.62,0,0,0-2.74-.7,7.14,7.14,0,0,0-2.11.47,5.43,5.43,0,0,0-1.82,1.15,5.7,5.7,0,0,0-1.28,1.87,6.46,6.46,0,0,0-.49,2.59,6.65,6.65,0,0,0,.4,2.3,5.83,5.83,0,0,0,1.12,1.89,5.29,5.29,0,0,0,1.78,1.3,5.68,5.68,0,0,0,2.39.49,6.38,6.38,0,0,0,2.65-.58A5.14,5.14,0,0,0,599.51,18Z" transform="translate(-0.55 -0.35)"/><path class="cls-2" d="M636.88,6.76a.83.83,0,0,1-.25.61l-8.93,8.89V27.32A.74.74,0,0,1,627,28h-7.2a.7.7,0,0,1-.51-.22.69.69,0,0,1-.22-.5V16.26l-8.93-8.89a.83.83,0,0,1-.25-.61.68.68,0,0,1,.18-.5l5.08-5.08a.68.68,0,0,1,.5-.18.83.83,0,0,1,.61.25l7.15,7.13,7.11-7.13a.83.83,0,0,1,.61-.25.68.68,0,0,1,.5.18l5.08,5.08A.68.68,0,0,1,636.88,6.76Z" transform="translate(-0.55 -0.35)"/></g><g class="cls-1"><path class="cls-2" d="M369,.4a.16.16,0,0,1,0,.11V2.2a.17.17,0,0,1-.16.16h-2.59v.77h1.81a.15.15,0,0,1,.11.05.15.15,0,0,1,0,.11V4.95a.2.2,0,0,1,0,.14.15.15,0,0,1-.11.05h-1.81V7.69a.2.2,0,0,1-.07.13.22.22,0,0,1-.16.07h-2a.18.18,0,0,1-.15-.07.22.22,0,0,1-.05-.13V.55a.18.18,0,0,1,.2-.2h4.82A.15.15,0,0,1,369,.4Z" transform="translate(-0.55 -0.35)"/></g><g class="cls-1"><path class="cls-2" d="M366.53,10.36a3.67,3.67,0,0,1,1.29.23,3.3,3.3,0,0,1,1.13.71,3.54,3.54,0,0,1,.8,1.17,4.12,4.12,0,0,1,.3,1.65,4.23,4.23,0,0,1-.3,1.68,3.38,3.38,0,0,1-.8,1.16,3.2,3.2,0,0,1-1.12.67,4.09,4.09,0,0,1-1.29.23h0a4.18,4.18,0,0,1-1.3-.23A3.24,3.24,0,0,1,364,17a3.38,3.38,0,0,1-.81-1.16,4.16,4.16,0,0,1-.31-1.68,4.05,4.05,0,0,1,.31-1.65A3.55,3.55,0,0,1,364,11.3a3.33,3.33,0,0,1,1.14-.71,3.76,3.76,0,0,1,1.3-.23Zm0,5.16a1.48,1.48,0,0,0,.48-.08,1.16,1.16,0,0,0,.42-.25,1.28,1.28,0,0,0,.31-.44,1.57,1.57,0,0,0,.12-.62,1.64,1.64,0,0,0-.12-.64,1.32,1.32,0,0,0-.31-.45,1.27,1.27,0,0,0-.42-.27,1.35,1.35,0,0,0-.48-.09h0a1.4,1.4,0,0,0-.49.09,1.22,1.22,0,0,0-.42.27,1.34,1.34,0,0,0-.3.45,1.62,1.62,0,0,0-.12.64,1.57,1.57,0,0,0,.09.54,1.23,1.23,0,0,0,.26.43,1.36,1.36,0,0,0,.42.3,1.38,1.38,0,0,0,.56.13Z" transform="translate(-0.55 -0.35)"/></g><g class="cls-1"><path class="cls-2" d="M369.56,27.7l0,0a.1.1,0,0,1,0,0c0,.08,0,.12-.13.12h-2.28a.27.27,0,0,1-.16-.05.22.22,0,0,1-.1-.14l-1.38-2.15V27.7a.23.23,0,0,1-.05.13.15.15,0,0,1-.13.07H363.6a.17.17,0,0,1-.15-.07.22.22,0,0,1-.06-.13V20.59a.18.18,0,0,1,.2-.2h3a2.24,2.24,0,0,1,.91.19,2.32,2.32,0,0,1,.74.5,2.45,2.45,0,0,1,.5.75,2.25,2.25,0,0,1,.18.92,2.41,2.41,0,0,1-.33,1.26,2.15,2.15,0,0,1-.91.83Zm-4-4.33h.56a.6.6,0,0,0,.42-.19.59.59,0,0,0,.2-.44.54.54,0,0,0-.05-.24.74.74,0,0,0-.14-.2.73.73,0,0,0-.19-.14.5.5,0,0,0-.23-.05h-.56Z" transform="translate(-0.55 -0.35)"/></g><g class="cls-1"><path class="cls-2" d="M109.77,114.7l.11.32a.81.81,0,0,1,0,.25q0,.86-.94.86H92.56a2,2,0,0,1-1.15-.4,1.67,1.67,0,0,1-.72-1L80.75,99.22V114.7a1.64,1.64,0,0,1-.36.94,1.1,1.1,0,0,1-.94.5H66.78a1.26,1.26,0,0,1-1-.5,1.55,1.55,0,0,1-.4-.94V63.51a1.27,1.27,0,0,1,1.44-1.44H88.17a16.15,16.15,0,0,1,6.52,1.33A16.82,16.82,0,0,1,100,67a17.58,17.58,0,0,1,3.6,5.36A16.33,16.33,0,0,1,104.94,79a17.28,17.28,0,0,1-2.41,9.11,15.43,15.43,0,0,1-6.52,6Zm-29-31.18h4a4.37,4.37,0,0,0,3.06-1.33,4.26,4.26,0,0,0,1.4-3.2,3.89,3.89,0,0,0-.4-1.69,5.21,5.21,0,0,0-1-1.44,5.41,5.41,0,0,0-1.4-1,3.68,3.68,0,0,0-1.66-.4h-4Z" transform="translate(-0.55 -0.35)"/><path class="cls-2" d="M134.39,76.4v5.33h13.32a1,1,0,0,1,.72.4,1.5,1.5,0,0,1,.36,1V95a1.1,1.1,0,0,1-.36.79,1,1,0,0,1-.72.36H134.39v5.62h18.94a1.35,1.35,0,0,1,.79.25,1,1,0,0,1,.36.9v11.88a1,1,0,0,1-.36.9,1.35,1.35,0,0,1-.79.25H118.55a1.27,1.27,0,0,1-1.44-1.44V63.37a1.27,1.27,0,0,1,1.44-1.44h34.78a1.24,1.24,0,0,1,1.15,1.15V75a1.49,1.49,0,0,1-.36,1,1.06,1.06,0,0,1-.79.4Z" transform="translate(-0.55 -0.35)"/><path class="cls-2" d="M223.1,114.49a2.3,2.3,0,0,1,.14.65q0,.86-.94.86h-13.9a2.16,2.16,0,0,1-1.26-.43,2.59,2.59,0,0,1-.9-1.08l-3.1-7H182.49l-3.1,7a3.24,3.24,0,0,1-1,1.08,2.07,2.07,0,0,1-1.19.43h-13.9q-.94,0-.94-.86a2.26,2.26,0,0,1,.14-.65l22.68-50.83a2.42,2.42,0,0,1,1.37-1.3,1.16,1.16,0,0,1,.72-.22H198.4a1.29,1.29,0,0,1,.65.22,3,3,0,0,1,.76.47,2.14,2.14,0,0,1,.61.83ZM198,95.91l-5.18-11.59L187.6,95.91Z" transform="translate(-0.55 -0.35)"/><path class="cls-2" d="M252.11,61.86a27,27,0,0,1,9.36,1.69,23.93,23.93,0,0,1,8.21,5.08A25.65,25.65,0,0,1,275.51,77a29,29,0,0,1,2.23,11.81,30.21,30.21,0,0,1-2.23,12.2,24.35,24.35,0,0,1-5.83,8.35,23.35,23.35,0,0,1-8.21,4.86,30,30,0,0,1-9.36,1.66H231.88a1.26,1.26,0,0,1-1-.5,1.55,1.55,0,0,1-.4-.94V63.22q0-1.37,1.44-1.37h20.23ZM251,99.58a11.62,11.62,0,0,0,3.71-.61A8.84,8.84,0,0,0,258,97.06a9.54,9.54,0,0,0,2.27-3.31,13.51,13.51,0,0,0,.18-9,10.33,10.33,0,0,0-2-3.42A9.84,9.84,0,0,0,255.28,79a11.32,11.32,0,0,0-4.25-1h-4V99.58Z" transform="translate(-0.55 -0.35)"/><path class="cls-2" d="M302.8,114.63a1.37,1.37,0,0,1-.4.83,1.23,1.23,0,0,1-1,.47H287a1.12,1.12,0,0,1-.94-.47,1.42,1.42,0,0,1-.36-.83V63.37a1.36,1.36,0,0,1,.36-1A1.26,1.26,0,0,1,287,62h14.47a1.39,1.39,0,0,1,1,.36,1.3,1.3,0,0,1,.4,1Z" transform="translate(-0.55 -0.35)"/><path class="cls-2" d="M311.44,62h13.75a2,2,0,0,1,1.15.4,2,2,0,0,1,.79,1l18,23.76V63.44A1.27,1.27,0,0,1,346.57,62h12.89a1.27,1.27,0,0,1,1.44,1.44v51.19a1.56,1.56,0,0,1-.4.94,1.26,1.26,0,0,1-1,.5H345.13a1.75,1.75,0,0,1-1.15-.5,3.26,3.26,0,0,1-.79-.94L325.77,91.16v23.47a1.57,1.57,0,0,1-.4.94,1.26,1.26,0,0,1-1,.5H311.44a1.26,1.26,0,0,1-1-.5,1.56,1.56,0,0,1-.4-.94V63.44A1.27,1.27,0,0,1,311.44,62Z" transform="translate(-0.55 -0.35)"/><path class="cls-2" d="M417.06,85.72a1.5,1.5,0,0,1,.65,1.12v5.69a26.17,26.17,0,0,1-.14,2.74q-.15,1.37-.32,2.56t-.4,2.05l-.29,1.15a28.41,28.41,0,0,1-2.27,4.54,20.9,20.9,0,0,1-4.21,4.93,23.43,23.43,0,0,1-6.59,4,24.36,24.36,0,0,1-9.32,1.62h-.29a27.71,27.71,0,0,1-9.36-1.8,24.34,24.34,0,0,1-8.21-5.11,26.06,26.06,0,0,1-5.87-8.42,29.5,29.5,0,0,1-2.34-11.88v-.29a28.6,28.6,0,0,1,2.34-11.66,25,25,0,0,1,5.87-8.24,24.29,24.29,0,0,1,8.21-4.93,30.26,30.26,0,0,1,9.36-1.8h.29A25,25,0,0,1,404.82,64a24.43,24.43,0,0,1,7.13,4.82,19,19,0,0,1,4,5.54,11.7,11.7,0,0,1,1.22,4.28,4.18,4.18,0,0,1-.58,2.23,2.41,2.41,0,0,1-2.23.94h-10.8a11,11,0,0,0-4.1-3.71,13.36,13.36,0,0,0-5.54-1.4,14.19,14.19,0,0,0-4.14.94,10.9,10.9,0,0,0-3.64,2.3,11.37,11.37,0,0,0-2.56,3.74,12.89,12.89,0,0,0-1,5.18,14,14,0,0,0,.72,4.46,11.72,11.72,0,0,0,2.09,3.82,10.63,10.63,0,0,0,3.28,2.66,8.86,8.86,0,0,0,4.21,1,18.54,18.54,0,0,0,4.9-.65,7.85,7.85,0,0,0,4.1-2.81H398.7a.93.93,0,0,1-.76-.43,2.15,2.15,0,0,1-.32-1.3V86.84a2.15,2.15,0,0,1,.32-1.12.91.91,0,0,1,.76-.54H416A1.88,1.88,0,0,1,417.06,85.72Z" transform="translate(-0.55 -0.35)"/><path class="cls-2" d="M482.72,100.09V114.7a1.56,1.56,0,0,1-.4.94,1.19,1.19,0,0,1-1,.5h-37a1.27,1.27,0,0,1-1-.5,1.55,1.55,0,0,1-.4-.94V63.44A1.28,1.28,0,0,1,444.35,62h14.39a1.28,1.28,0,0,1,1.45,1.44V98.65h21.17Q482.72,98.65,482.72,100.09Z" transform="translate(-0.55 -0.35)"/><path class="cls-2" d="M507.71,114.63a1.37,1.37,0,0,1-.4.83,1.23,1.23,0,0,1-1,.47H491.87a1.12,1.12,0,0,1-.94-.47,1.42,1.42,0,0,1-.36-.83V63.37a1.36,1.36,0,0,1,.36-1,1.26,1.26,0,0,1,.94-.36h14.47a1.39,1.39,0,0,1,1,.36,1.3,1.3,0,0,1,.4,1Z" transform="translate(-0.55 -0.35)"/><path class="cls-2" d="M536.58,80.94a2.65,2.65,0,0,0,1.22,2A34.07,34.07,0,0,0,540.86,85q1.84,1.15,4,2.63a25.35,25.35,0,0,1,4,3.42,17.34,17.34,0,0,1,3.06,4.54,14,14,0,0,1,1.22,6,10.62,10.62,0,0,1-1.94,6.37,15.34,15.34,0,0,1-5.15,4.46,25.47,25.47,0,0,1-7.34,2.59,43.36,43.36,0,0,1-8.53.83H517.43q-1.15,0-1.15-1.22V99.94q0-1.22,1.15-1.22h11.45a5,5,0,0,0,2.38-.5,1.62,1.62,0,0,0,.94-1.51q0-.79-1.3-1.73t-3.2-2.16q-1.91-1.22-4.14-2.77a25.42,25.42,0,0,1-4.14-3.6,19.45,19.45,0,0,1-3.2-4.68,13.24,13.24,0,0,1-1.3-5.94,11.69,11.69,0,0,1,1.58-6.16,12.54,12.54,0,0,1,4.43-4.32,22.13,22.13,0,0,1,6.73-2.52,40.45,40.45,0,0,1,8.42-.83h12.82A1.17,1.17,0,0,1,550,63.22V77.77a1.06,1.06,0,0,1-.36.83,1.16,1.16,0,0,1-.79.32h-9.65a4.86,4.86,0,0,0-.79.07,3,3,0,0,0-.86.29,2,2,0,0,0-.72.61A1.73,1.73,0,0,0,536.58,80.94Z" transform="translate(-0.55 -0.35)"/><path class="cls-2" d="M610.05,62.36a1.63,1.63,0,0,1,.32,1v13a1.48,1.48,0,0,1-.32,1,1,1,0,0,1-.76.4H593v36.79a1.47,1.47,0,0,1-.43,1.08,1.37,1.37,0,0,1-1,.43H577.25a1.49,1.49,0,0,1-1-.43,1.41,1.41,0,0,1-.47-1.08V77.7H559.47a.9.9,0,0,1-.68-.4,1.48,1.48,0,0,1-.32-1v-13a1.63,1.63,0,0,1,.32-1,.89.89,0,0,1,.68-.43H609.3A.93.93,0,0,1,610.05,62.36Z" transform="translate(-0.55 -0.35)"/></g><g class="cls-1"><path class="cls-2" d="M41.61,62.1a.45.45,0,0,1,.09.28V66a.41.41,0,0,1-.09.27.27.27,0,0,1-.21.11H36.88V76.58a.41.41,0,0,1-.12.3.38.38,0,0,1-.28.12h-4a.42.42,0,0,1-.29-.12.39.39,0,0,1-.13-.3V66.36H27.56a.25.25,0,0,1-.19-.11.41.41,0,0,1-.09-.27v-3.6a.45.45,0,0,1,.09-.28.24.24,0,0,1,.19-.12H41.4A.26.26,0,0,1,41.61,62.1Z" transform="translate(-0.55 -0.35)"/></g><g class="cls-1"><path class="cls-2" d="M41.7,82.38V96.64a.51.51,0,0,1-.09.25.31.31,0,0,1-.29.15h-4a.31.31,0,0,1-.29-.15.51.51,0,0,1-.09-.25V92H32.18v4.68a.44.44,0,0,1-.12.25.33.33,0,0,1-.26.15h-4a.44.44,0,0,1-.31-.15.41.41,0,0,1-.15-.25V82.38a.34.34,0,0,1,.15-.3.55.55,0,0,1,.31-.1h4a.4.4,0,0,1,.26.1.37.37,0,0,1,.12.3v4.68H37V82.38q0-.4.38-.4h4Q41.7,82,41.7,82.38Z" transform="translate(-0.55 -0.35)"/></g><g class="cls-1"><path class="cls-2" d="M34,106v1.48h3.7a.28.28,0,0,1,.2.11.42.42,0,0,1,.1.29v3.3a.31.31,0,0,1-.1.22.29.29,0,0,1-.2.1H34v1.56h5.26a.37.37,0,0,1,.22.07.28.28,0,0,1,.1.25v3.3a.28.28,0,0,1-.1.25.37.37,0,0,1-.22.07H29.61a.35.35,0,0,1-.4-.4V102.38a.35.35,0,0,1,.4-.4h9.66a.34.34,0,0,1,.32.32v3.3a.41.41,0,0,1-.1.29.29.29,0,0,1-.22.11Z" transform="translate(-0.55 -0.35)"/></g></svg>