<svg id="Layer_1" data-name="Layer 1" xmlns="http://www.w3.org/2000/svg" viewBox="0 0 508.04 139.02"><defs><style>.cls-1,.cls-2{fill:#fdc02f;}.cls-2{font-size:48px;font-family:Maskoolin, Maskoolin;}</style></defs><title>logo</title><path class="cls-1" d="M4.1,134.5V41.91c.18-1.26.34-2.51.54-3.77A42.82,42.82,0,0,1,46.51,2.21q25.61,0,51.22,0a37.92,37.92,0,0,1,4.27.24,42.79,42.79,0,0,1,38.11,42.77q0,25,0,50c0,1.55-.07,3.11-.23,4.65a42.78,42.78,0,0,1-34,37.46c-1.88.38-3.8.59-5.69.88H7.82A5.64,5.64,0,0,1,4.1,134.5Zm9.33-49q0,20.91,0,41.82c0,1.54,0,1.54,1.53,1.54q41.17,0,82.34,0a32.23,32.23,0,0,0,5.37-.45,33.45,33.45,0,0,0,28.1-33.35q0-24.82,0-49.65a39,39,0,0,0-.21-4.09,33.52,33.52,0,0,0-33.1-29.78q-25.34,0-50.67,0a32.4,32.4,0,0,0-3.81.23A33.49,33.49,0,0,0,13.43,45.11Q13.42,65.32,13.43,85.53Z" transform="translate(-4.1 0.8)"/><path class="cls-1" d="M74.85,99.67q0-9.59,0-19.18c0-1.55.18-1.73,1.7-1.74,5.15,0,10.3,0,15.45,0a19.45,19.45,0,0,1,19.43,17.72A25.51,25.51,0,0,1,110.37,108c-2.65,7.31-8,11.38-15.6,12.56a19.93,19.93,0,0,1-3,.22c-5,0-10,0-15,0-1.75,0-2-.22-2-2Q74.84,109.21,74.85,99.67ZM87.8,99.6c0,2.45,0,4.9,0,7.35,0,.79.28,1.15,1.09,1.09.59,0,1.18,0,1.77,0,3.71,0,6.38-1.82,7.49-5,1.23-3.54.19-7.77-2.41-9.9a9.16,9.16,0,0,0-6.46-1.84c-1.46.05-1.47,0-1.47,1.44Q87.79,96.16,87.8,99.6Z" transform="translate(-4.1 0.8)"/><path class="cls-1" d="M38.2,56.81c0,.55-.05.9-.06,1.25,0,3.17,0,6.33,0,9.5,0,1.6-.32,1.91-1.91,1.91-2.82,0-5.65,0-8.47,0-1.29,0-1.68-.39-1.68-1.67q0-19.41,0-38.82c0-1.23.33-1.58,1.54-1.58,5.49,0,11-.08,16.48,0a13,13,0,0,1,12.36,9.81c1.46,5.72-.65,11.73-5.64,14.66-.76.45-.59.82-.21,1.39q4.72,7,9.41,14.09a8.66,8.66,0,0,1,.5.78c.41.78.15,1.3-.74,1.31-4.16,0-8.32,0-12.47,0a2.27,2.27,0,0,1-1.51-1C43.38,64.73,41,61,38.65,57.3A5.15,5.15,0,0,0,38.2,56.81Zm0-16.26c0,.9,0,1.8,0,2.69,0,.51.21.85.76.84A19,19,0,0,0,41.78,44a3.47,3.47,0,0,0,2.83-3.53,3.72,3.72,0,0,0-3.26-3.3c-.77-.06-1.55,0-2.32,0s-.89.31-.88.92C38.16,38.87,38.15,39.71,38.15,40.54Z" transform="translate(-4.1 0.8)"/><path class="cls-1" d="M60.82,120c-1.61,0-3.23,0-4.84,0a2.28,2.28,0,0,1-2.32-1.52c-.62-1.46-1.29-2.89-1.91-4.35a1.16,1.16,0,0,0-1.21-.79q-7.13,0-14.25,0a1.16,1.16,0,0,0-1.2.8c-.61,1.43-1.26,2.84-1.88,4.26a2.44,2.44,0,0,1-2.48,1.6c-3.2,0-6.4,0-9.59,0-1.35,0-1.63-.42-1.07-1.67q8.62-19.35,17.25-38.7A2.36,2.36,0,0,1,39.7,78c2.36,0,4.72.06,7.08,0a2.72,2.72,0,0,1,2.87,1.85q7.45,16.81,15,33.6c.71,1.59,1.43,3.17,2.12,4.76.57,1.31.32,1.71-1.09,1.73C64.05,120,62.44,120,60.82,120ZM43.56,95.8l-.32,0-3.75,8.39h7.81Z" transform="translate(-4.1 0.8)"/><path class="cls-1" d="M199.62,39.14l.07.22a.55.55,0,0,1,0,.17q0,.58-.62.58H188.14a1.35,1.35,0,0,1-.77-.26,1.11,1.11,0,0,1-.48-.7l-6.62-10.32V39.14a1.1,1.1,0,0,1-.24.62.74.74,0,0,1-.62.34H171a.84.84,0,0,1-.7-.34,1,1,0,0,1-.26-.62V5a.85.85,0,0,1,1-1h14.26a10.79,10.79,0,0,1,4.34.89,11.21,11.21,0,0,1,3.55,2.42,11.72,11.72,0,0,1,2.4,3.58,10.9,10.9,0,0,1,.89,4.39,11.52,11.52,0,0,1-1.61,6.07,10.29,10.29,0,0,1-4.34,4ZM180.27,18.35H183a2.91,2.91,0,0,0,2-.89,2.84,2.84,0,0,0,.94-2.14,2.59,2.59,0,0,0-.26-1.13,3.47,3.47,0,0,0-.67-1,3.6,3.6,0,0,0-.94-.67,2.44,2.44,0,0,0-1.1-.26h-2.69Z" transform="translate(-4.1 0.8)"/><path class="cls-1" d="M245,39a1.52,1.52,0,0,1,.1.43q0,.58-.62.58h-9.26a1.44,1.44,0,0,1-.84-.29,1.73,1.73,0,0,1-.6-.72l-2.06-4.66H217.9L215.84,39a2.16,2.16,0,0,1-.65.72,1.38,1.38,0,0,1-.79.29h-9.26q-.62,0-.62-.58a1.51,1.51,0,0,1,.1-.43L219.73,5.1a1.62,1.62,0,0,1,.91-.86.77.77,0,0,1,.48-.14h7.39a.86.86,0,0,1,.43.14,2,2,0,0,1,.5.31,1.45,1.45,0,0,1,.41.55ZM228.22,26.61l-3.46-7.73-3.46,7.73Z" transform="translate(-4.1 0.8)"/><path class="cls-1" d="M264.32,3.9A18,18,0,0,1,270.56,5,15.94,15.94,0,0,1,276,8.42,17.11,17.11,0,0,1,279.92,14a19.32,19.32,0,0,1,1.49,7.87A20.15,20.15,0,0,1,279.92,30,16.24,16.24,0,0,1,276,35.61a15.56,15.56,0,0,1-5.47,3.24,20,20,0,0,1-6.24,1.1H250.83a.84.84,0,0,1-.7-.34,1,1,0,0,1-.26-.62V4.82q0-.91,1-.91h13.49Zm-.72,25.15a7.79,7.79,0,0,0,2.47-.41,5.88,5.88,0,0,0,2.16-1.27,6.35,6.35,0,0,0,1.51-2.21,8.27,8.27,0,0,0,.58-3.26,8.19,8.19,0,0,0-.46-2.74,6.89,6.89,0,0,0-1.32-2.28,6.57,6.57,0,0,0-2.11-1.58,7.55,7.55,0,0,0-2.83-.7H261V29.06Z" transform="translate(-4.1 0.8)"/><path class="cls-1" d="M298.11,39.09a.91.91,0,0,1-.26.55.82.82,0,0,1-.65.31h-9.65a.75.75,0,0,1-.62-.31,1,1,0,0,1-.24-.55V4.91a.91.91,0,0,1,.24-.67.84.84,0,0,1,.62-.24h9.65a.93.93,0,0,1,.65.24.86.86,0,0,1,.26.67Z" transform="translate(-4.1 0.8)"/><path class="cls-1" d="M333.58,26.61a1.66,1.66,0,0,1,1.54.62,2.78,2.78,0,0,1,.38,1.49,7.79,7.79,0,0,1-.84,2.83A13.21,13.21,0,0,1,332,35.3a16.52,16.52,0,0,1-4.7,3.26,16,16,0,0,1-7,1.39h-.19a18.43,18.43,0,0,1-6.24-1.2,16.21,16.21,0,0,1-5.47-3.41,17.38,17.38,0,0,1-3.91-5.62,19.55,19.55,0,0,1-1.56-7.87v-.19a22,22,0,0,1,1.39-7.06A17,17,0,0,1,307.78,9a15.75,15.75,0,0,1,5.4-3.72,19.34,19.34,0,0,1,12-.7,16.47,16.47,0,0,1,3.91,1.68,13.76,13.76,0,0,1,2.9,2.3,16.35,16.35,0,0,1,2,2.5,10.82,10.82,0,0,1,1.13,2.3,5.78,5.78,0,0,1,.36,1.7,2.66,2.66,0,0,1-.38,1.46,1.69,1.69,0,0,1-1.54.6h-7.1a7.49,7.49,0,0,0-2.74-2.42,8.8,8.8,0,0,0-3.65-.94,9.54,9.54,0,0,0-2.81.62,7.26,7.26,0,0,0-2.42,1.54,7.58,7.58,0,0,0-1.7,2.5,8.58,8.58,0,0,0-.65,3.46,8.84,8.84,0,0,0,.53,3.07,7.77,7.77,0,0,0,1.49,2.52,7.05,7.05,0,0,0,2.38,1.73,7.57,7.57,0,0,0,3.19.65,8.49,8.49,0,0,0,3.53-.77,6.84,6.84,0,0,0,2.86-2.45Z" transform="translate(-4.1 0.8)"/><path class="cls-1" d="M377.17,39a1.55,1.55,0,0,1,.1.43q0,.58-.62.58h-9.26a1.44,1.44,0,0,1-.84-.29,1.72,1.72,0,0,1-.6-.72l-2.06-4.66H350.1L348,39a2.16,2.16,0,0,1-.65.72,1.38,1.38,0,0,1-.79.29h-9.26c-.42,0-.62-.19-.62-.58a1.5,1.5,0,0,1,.1-.43L351.92,5.1a1.62,1.62,0,0,1,.91-.86.77.77,0,0,1,.48-.14h7.39a.86.86,0,0,1,.43.14,2,2,0,0,1,.5.31,1.44,1.44,0,0,1,.41.55ZM360.42,26.61,357,18.88l-3.46,7.73Z" transform="translate(-4.1 0.8)"/><path class="cls-1" d="M408.61,29.39v9.74a1,1,0,0,1-.26.62.79.79,0,0,1-.65.34H383a.84.84,0,0,1-.7-.34,1,1,0,0,1-.26-.62V5a.85.85,0,0,1,1-1h9.59a.85.85,0,0,1,1,1V28.43h14.11Q408.61,28.43,408.61,29.39Z" transform="translate(-4.1 0.8)"/><text class="cls-2" transform="translate(410.46 40.8)"> </text><path class="cls-1" d="M210.46,87a1.52,1.52,0,0,1,.1.43q0,.58-.62.58h-9.26a1.44,1.44,0,0,1-.84-.29,1.73,1.73,0,0,1-.6-.72l-2.06-4.66H183.39L181.33,87a2.16,2.16,0,0,1-.65.72,1.38,1.38,0,0,1-.79.29h-9.26q-.62,0-.62-.58a1.51,1.51,0,0,1,.1-.43L185.22,53.1a1.62,1.62,0,0,1,.91-.86.77.77,0,0,1,.48-.14H194a.86.86,0,0,1,.43.14,2,2,0,0,1,.5.31,1.45,1.45,0,0,1,.41.55ZM193.71,74.61l-3.46-7.73-3.46,7.73Z" transform="translate(-4.1 0.8)"/><path class="cls-1" d="M243.63,74.61a1.67,1.67,0,0,1,1.54.62,2.78,2.78,0,0,1,.38,1.49,7.79,7.79,0,0,1-.84,2.83A13.22,13.22,0,0,1,242,83.3a16.52,16.52,0,0,1-4.7,3.26,16,16,0,0,1-7,1.39h-.19a18.44,18.44,0,0,1-6.24-1.2,16.21,16.21,0,0,1-5.47-3.41,17.37,17.37,0,0,1-3.91-5.62A19.54,19.54,0,0,1,213,69.86v-.19a22,22,0,0,1,1.39-7.06A17,17,0,0,1,217.83,57a15.74,15.74,0,0,1,5.4-3.72,19.35,19.35,0,0,1,12-.7,16.49,16.49,0,0,1,3.91,1.68,13.8,13.8,0,0,1,2.9,2.3,16.34,16.34,0,0,1,2,2.5,10.85,10.85,0,0,1,1.13,2.3,5.77,5.77,0,0,1,.36,1.7,2.66,2.66,0,0,1-.38,1.46,1.69,1.69,0,0,1-1.54.6h-7.1a7.49,7.49,0,0,0-2.74-2.42,8.8,8.8,0,0,0-3.65-.94,9.54,9.54,0,0,0-2.81.62,7.26,7.26,0,0,0-2.42,1.54,7.58,7.58,0,0,0-1.7,2.5,8.59,8.59,0,0,0-.65,3.46,8.84,8.84,0,0,0,.53,3.07,7.78,7.78,0,0,0,1.49,2.52A7.05,7.05,0,0,0,227,77.18a7.57,7.57,0,0,0,3.19.65,8.49,8.49,0,0,0,3.53-.77,6.85,6.85,0,0,0,2.86-2.45Z" transform="translate(-4.1 0.8)"/><path class="cls-1" d="M284.74,52.24a1.09,1.09,0,0,1,.21.67v8.64a1,1,0,0,1-.21.65.64.64,0,0,1-.5.26H273.39V87a1,1,0,0,1-.29.72.91.91,0,0,1-.67.29h-9.56a1,1,0,0,1-.69-.29.94.94,0,0,1-.31-.72V62.46H251a.6.6,0,0,1-.46-.26,1,1,0,0,1-.22-.65V52.91a1.09,1.09,0,0,1,.22-.67A.59.59,0,0,1,251,52h33.22A.62.62,0,0,1,284.74,52.24Z" transform="translate(-4.1 0.8)"/><path class="cls-1" d="M301.23,87.09a.91.91,0,0,1-.26.55.82.82,0,0,1-.65.31h-9.65a.75.75,0,0,1-.62-.31.94.94,0,0,1-.24-.55V52.91a.9.9,0,0,1,.24-.67.84.84,0,0,1,.62-.24h9.65a.93.93,0,0,1,.65.24.87.87,0,0,1,.26.67Z" transform="translate(-4.1 0.8)"/><path class="cls-1" d="M323.31,51.9A17.59,17.59,0,0,1,329.5,53a15.78,15.78,0,0,1,5.4,3.38,16.94,16.94,0,0,1,3.84,5.64,19.76,19.76,0,0,1,1.46,7.9A20.29,20.29,0,0,1,338.74,78a16.14,16.14,0,0,1-3.84,5.57,15.39,15.39,0,0,1-5.4,3.24,19.52,19.52,0,0,1-6.19,1.1h-.19a20,20,0,0,1-6.24-1.1,15.54,15.54,0,0,1-5.47-3.24A16.22,16.22,0,0,1,307.52,78,20,20,0,0,1,306,70a19.47,19.47,0,0,1,1.49-7.9,17,17,0,0,1,3.89-5.64A15.93,15.93,0,0,1,316.88,53a18,18,0,0,1,6.24-1.13Zm0,24.77a7.15,7.15,0,0,0,2.33-.38,5.72,5.72,0,0,0,2-1.22A6.15,6.15,0,0,0,329.14,73a7.49,7.49,0,0,0,.55-3,7.81,7.81,0,0,0-.55-3.07,6.36,6.36,0,0,0-1.46-2.16,6.15,6.15,0,0,0-2-1.3,6.45,6.45,0,0,0-2.33-.43h-.19a6.64,6.64,0,0,0-2.35.43,5.83,5.83,0,0,0-2,1.3,6.54,6.54,0,0,0-1.44,2.16,7.81,7.81,0,0,0-.55,3.07,7.57,7.57,0,0,0,.43,2.59,5.88,5.88,0,0,0,1.27,2.09,6.57,6.57,0,0,0,2,1.44,6.7,6.7,0,0,0,2.66.6Z" transform="translate(-4.1 0.8)"/><path class="cls-1" d="M346,52h9.17a1.45,1.45,0,0,1,1.3,1l12,15.84V53a.85.85,0,0,1,1-1H378a.85.85,0,0,1,1,1V87.09a1,1,0,0,1-.26.62.84.84,0,0,1-.7.34h-9.55a1.17,1.17,0,0,1-.77-.34,2.17,2.17,0,0,1-.53-.62L355.52,71.44V87.09a1,1,0,0,1-.26.62.84.84,0,0,1-.7.34H346a.84.84,0,0,1-.7-.34,1,1,0,0,1-.26-.62V53A.85.85,0,0,1,346,52Z" transform="translate(-4.1 0.8)"/><path class="cls-1" d="M184.45,99.9a18,18,0,0,1,6.24,1.13,15.94,15.94,0,0,1,5.47,3.38A17.11,17.11,0,0,1,200,110a19.31,19.31,0,0,1,1.49,7.87A20.14,20.14,0,0,1,200,126a16.24,16.24,0,0,1-3.89,5.57,15.56,15.56,0,0,1-5.47,3.24,20,20,0,0,1-6.24,1.1H171a.84.84,0,0,1-.7-.34A1,1,0,0,1,170,135V100.82q0-.91,1-.91h13.49Zm-.72,25.15a7.79,7.79,0,0,0,2.47-.41,5.89,5.89,0,0,0,2.16-1.27,6.37,6.37,0,0,0,1.51-2.21,9,9,0,0,0,.12-6,6.89,6.89,0,0,0-1.32-2.28,6.56,6.56,0,0,0-2.11-1.58,7.55,7.55,0,0,0-2.83-.7h-2.64v14.45Z" transform="translate(-4.1 0.8)"/><path class="cls-1" d="M217.86,109.6v3.55h8.88a.67.67,0,0,1,.48.26,1,1,0,0,1,.24.7V122a.73.73,0,0,1-.24.53.69.69,0,0,1-.48.24h-8.88v3.74h12.62a.91.91,0,0,1,.53.17.68.68,0,0,1,.24.6v7.92a.68.68,0,0,1-.24.6.9.9,0,0,1-.53.17H207.3a.85.85,0,0,1-1-1V100.91a.85.85,0,0,1,1-1h23.18a.83.83,0,0,1,.77.77v7.92a1,1,0,0,1-.24.7.7.7,0,0,1-.53.26Z" transform="translate(-4.1 0.8)"/><path class="cls-1" d="M281.43,100.22a.82.82,0,0,1,.36.7v34.18a.91.91,0,0,1-.36.62,1.14,1.14,0,0,1-.79.34H272a.84.84,0,0,1-.7-.34,1,1,0,0,1-.26-.62v-16.9l-5.66,16.9a2,2,0,0,1-.38.53.73.73,0,0,1-.53.24l-.14.14a.39.39,0,0,1-.24,0h-9.84c-.26,0-.38-.06-.38-.19a1.16,1.16,0,0,1-.6-.24,1.42,1.42,0,0,1-.5-.53l-5.47-16.9v16.9a.92.92,0,0,1-.36.62,1.14,1.14,0,0,1-.79.34h-8.64a.84.84,0,0,1-.7-.34,1,1,0,0,1-.26-.62V100.91a.85.85,0,0,1,1-1H248a1.45,1.45,0,0,1,1.3,1l9.84,21.79,9.6-21.79a1.81,1.81,0,0,1,1.54-1h10.32A1.31,1.31,0,0,1,281.43,100.22Z" transform="translate(-4.1 0.8)"/><path class="cls-1" d="M305.07,99.9a17.59,17.59,0,0,1,6.19,1.13,15.78,15.78,0,0,1,5.4,3.38,16.94,16.94,0,0,1,3.84,5.64A19.76,19.76,0,0,1,322,118,20.29,20.29,0,0,1,320.5,126a16.14,16.14,0,0,1-3.84,5.57,15.39,15.39,0,0,1-5.4,3.24,19.52,19.52,0,0,1-6.19,1.1h-.19a20,20,0,0,1-6.24-1.1,15.54,15.54,0,0,1-5.47-3.24,16.22,16.22,0,0,1-3.89-5.57,20,20,0,0,1-1.49-8.09,19.47,19.47,0,0,1,1.49-7.9,17,17,0,0,1,3.89-5.64,15.93,15.93,0,0,1,5.47-3.38,18,18,0,0,1,6.24-1.13Zm0,24.77a7.15,7.15,0,0,0,2.33-.38,5.72,5.72,0,0,0,2-1.22A6.15,6.15,0,0,0,310.9,121a7.49,7.49,0,0,0,.55-3,7.81,7.81,0,0,0-.55-3.07,6.36,6.36,0,0,0-1.46-2.16,6.15,6.15,0,0,0-2-1.3,6.45,6.45,0,0,0-2.33-.43h-.19a6.64,6.64,0,0,0-2.35.43,5.83,5.83,0,0,0-2,1.3,6.54,6.54,0,0,0-1.44,2.16,7.81,7.81,0,0,0-.55,3.07,7.57,7.57,0,0,0,.43,2.59,5.88,5.88,0,0,0,1.27,2.09,6.57,6.57,0,0,0,2,1.44,6.7,6.7,0,0,0,2.66.6Z" transform="translate(-4.1 0.8)"/><path class="cls-1" d="M357.44,122.61a1.66,1.66,0,0,1,1.54.62,2.78,2.78,0,0,1,.38,1.49,7.79,7.79,0,0,1-.84,2.83,13.21,13.21,0,0,1-2.66,3.74,16.52,16.52,0,0,1-4.7,3.26,16,16,0,0,1-7,1.39H344a18.43,18.43,0,0,1-6.24-1.2,16.21,16.21,0,0,1-5.47-3.41,17.38,17.38,0,0,1-3.91-5.62,19.55,19.55,0,0,1-1.56-7.87v-.19a22,22,0,0,1,1.39-7.06,17,17,0,0,1,3.48-5.64,15.75,15.75,0,0,1,5.4-3.72,19.34,19.34,0,0,1,12-.7,16.47,16.47,0,0,1,3.91,1.68,13.76,13.76,0,0,1,2.9,2.3,16.35,16.35,0,0,1,2,2.5,10.82,10.82,0,0,1,1.13,2.3,5.78,5.78,0,0,1,.36,1.7,2.66,2.66,0,0,1-.38,1.46,1.69,1.69,0,0,1-1.54.6h-7.1a7.49,7.49,0,0,0-2.74-2.42,8.8,8.8,0,0,0-3.65-.94,9.54,9.54,0,0,0-2.81.62,7.26,7.26,0,0,0-2.42,1.54,7.58,7.58,0,0,0-1.7,2.5,8.58,8.58,0,0,0-.65,3.46,8.84,8.84,0,0,0,.53,3.07,7.77,7.77,0,0,0,1.49,2.52,7.05,7.05,0,0,0,2.38,1.73,7.57,7.57,0,0,0,3.19.65,8.49,8.49,0,0,0,3.53-.77,6.84,6.84,0,0,0,2.86-2.45Z" transform="translate(-4.1 0.8)"/><path class="cls-1" d="M393.77,135.14l.07.22a.55.55,0,0,1,0,.17q0,.58-.62.58H382.3a1.35,1.35,0,0,1-.77-.26,1.11,1.11,0,0,1-.48-.7l-6.62-10.32v10.32a1.1,1.1,0,0,1-.24.62.74.74,0,0,1-.62.34h-8.45a.84.84,0,0,1-.7-.34,1,1,0,0,1-.26-.62V101a.85.85,0,0,1,1-1h14.26a10.79,10.79,0,0,1,4.34.89,11.21,11.21,0,0,1,3.55,2.42,11.7,11.7,0,0,1,2.4,3.58,10.9,10.9,0,0,1,.89,4.39A11.52,11.52,0,0,1,389,117.4a10.29,10.29,0,0,1-4.34,4Zm-19.34-20.78h2.69a2.91,2.91,0,0,0,2-.89,2.84,2.84,0,0,0,.94-2.14,2.59,2.59,0,0,0-.26-1.13,3.46,3.46,0,0,0-.67-1,3.59,3.59,0,0,0-.94-.67,2.45,2.45,0,0,0-1.1-.26h-2.69Z" transform="translate(-4.1 0.8)"/><path class="cls-1" d="M438.65,135a1.5,1.5,0,0,1,.1.43q0,.58-.62.58h-9.26a1.44,1.44,0,0,1-.84-.29,1.73,1.73,0,0,1-.6-.72l-2.06-4.66H411.58L409.52,135a2.17,2.17,0,0,1-.65.72,1.38,1.38,0,0,1-.79.29h-9.26q-.62,0-.62-.58a1.51,1.51,0,0,1,.1-.43l15.12-33.89a1.62,1.62,0,0,1,.91-.86.77.77,0,0,1,.48-.14h7.39a.86.86,0,0,1,.43.14,2,2,0,0,1,.5.31,1.46,1.46,0,0,1,.41.55ZM421.9,122.61l-3.46-7.73L415,122.61Z" transform="translate(-4.1 0.8)"/><path class="cls-1" d="M469.42,122.61a1.67,1.67,0,0,1,1.54.62,2.78,2.78,0,0,1,.38,1.49,7.77,7.77,0,0,1-.84,2.83,13.19,13.19,0,0,1-2.66,3.74,16.52,16.52,0,0,1-4.7,3.26,16,16,0,0,1-7,1.39h-.19a18.44,18.44,0,0,1-6.24-1.2,16.22,16.22,0,0,1-5.47-3.41,17.37,17.37,0,0,1-3.91-5.62,19.55,19.55,0,0,1-1.56-7.87v-.19a22,22,0,0,1,1.39-7.06,17,17,0,0,1,3.48-5.64,15.73,15.73,0,0,1,5.4-3.72,19.35,19.35,0,0,1,12-.7,16.5,16.5,0,0,1,3.91,1.68,13.81,13.81,0,0,1,2.9,2.3,16.4,16.4,0,0,1,2,2.5,10.87,10.87,0,0,1,1.13,2.3,5.77,5.77,0,0,1,.36,1.7,2.66,2.66,0,0,1-.38,1.46,1.7,1.7,0,0,1-1.54.6h-7.1a7.49,7.49,0,0,0-2.74-2.42,8.8,8.8,0,0,0-3.65-.94,9.54,9.54,0,0,0-2.81.62,7.26,7.26,0,0,0-2.42,1.54,7.58,7.58,0,0,0-1.71,2.5,8.6,8.6,0,0,0-.65,3.46,8.81,8.81,0,0,0,.53,3.07,7.77,7.77,0,0,0,1.49,2.52,7,7,0,0,0,2.38,1.73,7.57,7.57,0,0,0,3.19.65,8.49,8.49,0,0,0,3.53-.77,6.85,6.85,0,0,0,2.86-2.45Z" transform="translate(-4.1 0.8)"/><path class="cls-1" d="M512.14,107.68a1.12,1.12,0,0,1-.34.82l-11.9,11.86v14.74a1,1,0,0,1-1,1h-9.59a1,1,0,0,1-1-1V120.35l-11.9-11.86a1.11,1.11,0,0,1-.34-.82.91.91,0,0,1,.24-.67l6.77-6.77a.91.91,0,0,1,.67-.24,1.12,1.12,0,0,1,.82.34l9.53,9.5,9.48-9.5a1.11,1.11,0,0,1,.82-.34.91.91,0,0,1,.67.24L511.9,107A.91.91,0,0,1,512.14,107.68Z" transform="translate(-4.1 0.8)"/><path class="cls-1" d="M399.36,49.53a.22.22,0,0,1,.07.15V52a.22.22,0,0,1-.07.15.22.22,0,0,1-.15.07h-3.63v1.08h2.53a.21.21,0,0,1,.15.07.21.21,0,0,1,.07.15V55.9a.27.27,0,0,1-.07.19.2.2,0,0,1-.15.08h-2.53v3.57a.28.28,0,0,1-.1.18.31.31,0,0,1-.22.1h-2.8a.25.25,0,0,1-.2-.1.3.3,0,0,1-.08-.18v-10a.25.25,0,0,1,.28-.28h6.75A.22.22,0,0,1,399.36,49.53Z" transform="translate(-4.1 0.8)"/><path class="cls-1" d="M395.86,64.47a5.14,5.14,0,0,1,1.81.33,4.61,4.61,0,0,1,1.58,1,5,5,0,0,1,1.12,1.64,5.77,5.77,0,0,1,.43,2.3,5.93,5.93,0,0,1-.43,2.36,4.71,4.71,0,0,1-1.12,1.62,4.49,4.49,0,0,1-1.58.95,5.73,5.73,0,0,1-1.81.32h-.06a5.86,5.86,0,0,1-1.82-.32,4.54,4.54,0,0,1-1.6-.95,4.73,4.73,0,0,1-1.13-1.62,5.84,5.84,0,0,1-.43-2.36,5.69,5.69,0,0,1,.43-2.3,5,5,0,0,1,1.13-1.64,4.66,4.66,0,0,1,1.6-1,5.25,5.25,0,0,1,1.82-.33Zm0,7.22a2.08,2.08,0,0,0,.68-.11,1.65,1.65,0,0,0,.59-.36,1.79,1.79,0,0,0,.43-.62,2.2,2.2,0,0,0,.16-.87,2.29,2.29,0,0,0-.16-.9,1.85,1.85,0,0,0-.43-.63,1.79,1.79,0,0,0-.59-.38,1.89,1.89,0,0,0-.68-.13h-.06a1.94,1.94,0,0,0-.69.13,1.7,1.7,0,0,0-.59.38,1.89,1.89,0,0,0-.42.63,2.28,2.28,0,0,0-.16.9,2.22,2.22,0,0,0,.13.76,1.7,1.7,0,0,0,.37.61,1.91,1.91,0,0,0,.59.42,2,2,0,0,0,.78.17Z" transform="translate(-4.1 0.8)"/><path class="cls-1" d="M400.11,89.75l0,.06a.16.16,0,0,1,0,0c0,.11-.06.17-.18.17h-3.19a.4.4,0,0,1-.22-.08.32.32,0,0,1-.14-.2l-1.93-3v3a.32.32,0,0,1-.07.18.21.21,0,0,1-.18.1h-2.46a.25.25,0,0,1-.2-.1.3.3,0,0,1-.08-.18v-10a.25.25,0,0,1,.28-.28h4.16a3.13,3.13,0,0,1,1.27.26,3.27,3.27,0,0,1,1,.71,3.41,3.41,0,0,1,.7,1,3.17,3.17,0,0,1,.26,1.28,3.36,3.36,0,0,1-.47,1.77,3,3,0,0,1-1.27,1.17Zm-5.64-6.06h.78a.85.85,0,0,0,.59-.26.82.82,0,0,0,.27-.62.77.77,0,0,0-.08-.33,1,1,0,0,0-.2-.28,1.05,1.05,0,0,0-.27-.2.72.72,0,0,0-.32-.08h-.78Z" transform="translate(-4.1 0.8)"/></svg>