<svg id="Layer_1" data-name="Layer 1" xmlns="http://www.w3.org/2000/svg" viewBox="0 0 342 132.14"><defs><style>.cls-1{isolation:isolate;}.cls-2{fill:#fdc02f;}</style></defs><title>type</title><g class="cls-1"><path class="cls-2" d="M29.6,38.15l.07.22a.55.55,0,0,1,0,.17q0,.58-.62.58H18.14a1.35,1.35,0,0,1-.77-.26,1.11,1.11,0,0,1-.48-.7L10.27,27.83V38.15a1.1,1.1,0,0,1-.24.62.73.73,0,0,1-.62.34H1a.84.84,0,0,1-.7-.34A1,1,0,0,1,0,38.15V4a.85.85,0,0,1,1-1H15.21A10.78,10.78,0,0,1,19.55,4,11.21,11.21,0,0,1,23.1,6.39,11.72,11.72,0,0,1,25.5,10a10.9,10.9,0,0,1,.89,4.39,11.52,11.52,0,0,1-1.61,6.07,10.28,10.28,0,0,1-4.34,4ZM10.27,17.37H13a2.91,2.91,0,0,0,2-.89,2.84,2.84,0,0,0,.94-2.13,2.59,2.59,0,0,0-.26-1.13,3.47,3.47,0,0,0-.67-1,3.59,3.59,0,0,0-.94-.67,2.44,2.44,0,0,0-1.1-.26H10.27Z" transform="translate(0 -2.93)"/><path class="cls-2" d="M74.94,38a1.52,1.52,0,0,1,.1.43q0,.58-.62.58H65.16a1.43,1.43,0,0,1-.84-.29,1.73,1.73,0,0,1-.6-.72l-2.06-4.65H47.88L45.82,38a2.16,2.16,0,0,1-.65.72,1.38,1.38,0,0,1-.79.29H35.12q-.62,0-.62-.58a1.51,1.51,0,0,1,.1-.43L49.71,4.13a1.61,1.61,0,0,1,.91-.86.77.77,0,0,1,.48-.14h7.39a.86.86,0,0,1,.43.14,2,2,0,0,1,.5.31,1.45,1.45,0,0,1,.41.55ZM58.2,25.63,54.74,17.9l-3.45,7.73Z" transform="translate(0 -2.93)"/><path class="cls-2" d="M94.28,2.93a18,18,0,0,1,6.24,1.13A15.93,15.93,0,0,1,106,7.44a17.1,17.1,0,0,1,3.89,5.61,19.31,19.31,0,0,1,1.49,7.87,20.14,20.14,0,0,1-1.49,8.13A16.24,16.24,0,0,1,106,34.62a15.55,15.55,0,0,1-5.47,3.24A20,20,0,0,1,94.28,39H80.8a.84.84,0,0,1-.7-.34,1,1,0,0,1-.26-.62V3.84q0-.91,1-.91H94.28Zm-.72,25.14A7.79,7.79,0,0,0,96,27.67a5.88,5.88,0,0,0,2.16-1.27,6.34,6.34,0,0,0,1.51-2.21,8.27,8.27,0,0,0,.58-3.26,8.19,8.19,0,0,0-.46-2.74,6.88,6.88,0,0,0-1.32-2.28,6.57,6.57,0,0,0-2.11-1.58,7.55,7.55,0,0,0-2.83-.7H90.92V28.07Z" transform="translate(0 -2.93)"/><path class="cls-2" d="M128.06,38.1a.91.91,0,0,1-.26.55.82.82,0,0,1-.65.31H117.5a.75.75,0,0,1-.62-.31,1,1,0,0,1-.24-.55V3.94a.91.91,0,0,1,.24-.67A.84.84,0,0,1,117.5,3h9.64a.93.93,0,0,1,.65.24.86.86,0,0,1,.26.67Z" transform="translate(0 -2.93)"/><path class="cls-2" d="M163.51,25.63a1.66,1.66,0,0,1,1.54.62,2.78,2.78,0,0,1,.38,1.49,7.78,7.78,0,0,1-.84,2.83,13.21,13.21,0,0,1-2.66,3.74,16.52,16.52,0,0,1-4.7,3.26,16,16,0,0,1-7,1.39H150a18.43,18.43,0,0,1-6.24-1.2,16.2,16.2,0,0,1-5.47-3.41,17.38,17.38,0,0,1-3.91-5.61,19.55,19.55,0,0,1-1.56-7.87v-.19a22,22,0,0,1,1.39-7.05A17,17,0,0,1,137.73,8a15.74,15.74,0,0,1,5.4-3.72,19.34,19.34,0,0,1,12-.7,16.46,16.46,0,0,1,3.91,1.68,13.75,13.75,0,0,1,2.9,2.3,16.34,16.34,0,0,1,2,2.5,10.81,10.81,0,0,1,1.13,2.3,5.77,5.77,0,0,1,.36,1.7,2.66,2.66,0,0,1-.38,1.46,1.69,1.69,0,0,1-1.54.6h-7.1a7.49,7.49,0,0,0-2.73-2.42,8.8,8.8,0,0,0-3.65-.94,9.54,9.54,0,0,0-2.81.62,7.26,7.26,0,0,0-2.42,1.54,7.57,7.57,0,0,0-1.7,2.5,8.58,8.58,0,0,0-.65,3.45,8.83,8.83,0,0,0,.53,3.07,7.77,7.77,0,0,0,1.49,2.52,7.05,7.05,0,0,0,2.37,1.73,7.57,7.57,0,0,0,3.19.65,8.49,8.49,0,0,0,3.53-.77,6.84,6.84,0,0,0,2.85-2.45Z" transform="translate(0 -2.93)"/><path class="cls-2" d="M207.08,38a1.54,1.54,0,0,1,.1.43q0,.58-.62.58h-9.26a1.43,1.43,0,0,1-.84-.29,1.72,1.72,0,0,1-.6-.72l-2.06-4.65H180L178,38a2.16,2.16,0,0,1-.65.72,1.37,1.37,0,0,1-.79.29h-9.26c-.42,0-.62-.19-.62-.58a1.5,1.5,0,0,1,.1-.43L181.84,4.13a1.61,1.61,0,0,1,.91-.86.77.77,0,0,1,.48-.14h7.39a.86.86,0,0,1,.43.14,2,2,0,0,1,.5.31,1.44,1.44,0,0,1,.41.55ZM190.34,25.63l-3.45-7.73-3.45,7.73Z" transform="translate(0 -2.93)"/><path class="cls-2" d="M238.51,28.41v9.74a1,1,0,0,1-.26.62.79.79,0,0,1-.65.34H212.94a.84.84,0,0,1-.7-.34,1,1,0,0,1-.26-.62V4a.85.85,0,0,1,1-1h9.59a.85.85,0,0,1,1,1V27.45H237.6Q238.51,27.45,238.51,28.41Z" transform="translate(0 -2.93)"/></g><g class="cls-1"><path class="cls-2" d="M40.45,86a1.52,1.52,0,0,1,.1.43q0,.58-.62.58H30.66a1.43,1.43,0,0,1-.84-.29,1.73,1.73,0,0,1-.6-.72l-2.06-4.65H13.39L11.32,86a2.16,2.16,0,0,1-.65.72,1.38,1.38,0,0,1-.79.29H.62Q0,87,0,86.42A1.51,1.51,0,0,1,.1,86L15.21,52.11a1.61,1.61,0,0,1,.91-.86.77.77,0,0,1,.48-.14H24a.86.86,0,0,1,.43.14,2,2,0,0,1,.5.31,1.45,1.45,0,0,1,.41.55ZM23.7,73.61l-3.45-7.73-3.45,7.73Z" transform="translate(0 -2.93)"/><path class="cls-2" d="M73.6,73.61a1.66,1.66,0,0,1,1.54.62,2.78,2.78,0,0,1,.38,1.49,7.78,7.78,0,0,1-.84,2.83A13.22,13.22,0,0,1,72,82.29a16.52,16.52,0,0,1-4.7,3.26,16,16,0,0,1-7,1.39h-.19a18.44,18.44,0,0,1-6.24-1.2,16.2,16.2,0,0,1-5.47-3.41,17.36,17.36,0,0,1-3.91-5.61,19.53,19.53,0,0,1-1.56-7.87v-.19a21.94,21.94,0,0,1,1.39-7.05A17,17,0,0,1,47.81,56a15.74,15.74,0,0,1,5.4-3.72,19.34,19.34,0,0,1,12-.7,16.48,16.48,0,0,1,3.91,1.68,13.79,13.79,0,0,1,2.9,2.3A16.33,16.33,0,0,1,74,58a10.84,10.84,0,0,1,1.13,2.3,5.77,5.77,0,0,1,.36,1.7,2.66,2.66,0,0,1-.38,1.46,1.69,1.69,0,0,1-1.54.6H66.5a7.49,7.49,0,0,0-2.73-2.42,8.8,8.8,0,0,0-3.65-.94,9.54,9.54,0,0,0-2.81.62,7.26,7.26,0,0,0-2.42,1.54,7.57,7.57,0,0,0-1.7,2.5,8.59,8.59,0,0,0-.65,3.45,8.83,8.83,0,0,0,.53,3.07,7.78,7.78,0,0,0,1.49,2.52,7.05,7.05,0,0,0,2.37,1.73,7.57,7.57,0,0,0,3.19.65,8.48,8.48,0,0,0,3.53-.77,6.84,6.84,0,0,0,2.85-2.45Z" transform="translate(0 -2.93)"/><path class="cls-2" d="M114.7,51.25a1.09,1.09,0,0,1,.21.67v8.64a1,1,0,0,1-.21.65.64.64,0,0,1-.5.26H103.35V86a1,1,0,0,1-.29.72.91.91,0,0,1-.67.29H92.84a1,1,0,0,1-.69-.29.94.94,0,0,1-.31-.72V61.47H81a.6.6,0,0,1-.46-.26,1,1,0,0,1-.22-.65V51.92a1.09,1.09,0,0,1,.22-.67A.59.59,0,0,1,81,51h33.2A.62.62,0,0,1,114.7,51.25Z" transform="translate(0 -2.93)"/><path class="cls-2" d="M131.18,86.08a.91.91,0,0,1-.26.55.82.82,0,0,1-.65.31h-9.64a.75.75,0,0,1-.62-.31.94.94,0,0,1-.24-.55V51.92a.9.9,0,0,1,.24-.67.84.84,0,0,1,.62-.24h9.64a.93.93,0,0,1,.65.24.87.87,0,0,1,.26.67Z" transform="translate(0 -2.93)"/><path class="cls-2" d="M153.25,50.91A17.58,17.58,0,0,1,159.44,52a15.78,15.78,0,0,1,5.4,3.38,16.93,16.93,0,0,1,3.84,5.64A19.76,19.76,0,0,1,170.14,69,20.28,20.28,0,0,1,168.67,77a16.14,16.14,0,0,1-3.84,5.57,15.39,15.39,0,0,1-5.4,3.24,19.51,19.51,0,0,1-6.19,1.1h-.19a20,20,0,0,1-6.24-1.1,15.54,15.54,0,0,1-5.47-3.24A16.21,16.21,0,0,1,137.46,77,20,20,0,0,1,136,69a19.47,19.47,0,0,1,1.49-7.89,17,17,0,0,1,3.89-5.64A15.92,15.92,0,0,1,146.82,52a18,18,0,0,1,6.24-1.13Zm0,24.76a7.15,7.15,0,0,0,2.33-.38,5.71,5.71,0,0,0,2-1.22A6.15,6.15,0,0,0,159.08,72a7.49,7.49,0,0,0,.55-3,7.8,7.8,0,0,0-.55-3.07,6.35,6.35,0,0,0-1.46-2.16,6.15,6.15,0,0,0-2-1.3,6.45,6.45,0,0,0-2.33-.43h-.19a6.64,6.64,0,0,0-2.35.43,5.83,5.83,0,0,0-2,1.3,6.53,6.53,0,0,0-1.44,2.16,7.8,7.8,0,0,0-.55,3.07,7.56,7.56,0,0,0,.43,2.59,5.88,5.88,0,0,0,1.27,2.09,6.57,6.57,0,0,0,2,1.44,6.69,6.69,0,0,0,2.66.6Z" transform="translate(0 -2.93)"/><path class="cls-2" d="M175.89,51h9.16a1.45,1.45,0,0,1,1.3,1l12,15.83V52a.85.85,0,0,1,1-1h8.59a.85.85,0,0,1,1,1V86.08a1,1,0,0,1-.26.62.84.84,0,0,1-.7.34h-9.55a1.17,1.17,0,0,1-.77-.34,2.17,2.17,0,0,1-.53-.62L185.44,70.44V86.08a1,1,0,0,1-.26.62.84.84,0,0,1-.7.34h-8.59a.84.84,0,0,1-.7-.34,1,1,0,0,1-.26-.62V52A.85.85,0,0,1,175.89,51Z" transform="translate(0 -2.93)"/></g><g class="cls-1"><path class="cls-2" d="M14.44,98.89A18,18,0,0,1,20.68,100a15.94,15.94,0,0,1,5.47,3.38A17.1,17.1,0,0,1,30,109a19.3,19.3,0,0,1,1.49,7.87A20.13,20.13,0,0,1,30,125a16.24,16.24,0,0,1-3.89,5.57,15.55,15.55,0,0,1-5.47,3.24,20,20,0,0,1-6.24,1.1H1a.84.84,0,0,1-.7-.34A1,1,0,0,1,0,134V99.8q0-.91,1-.91H14.44ZM13.72,124a7.79,7.79,0,0,0,2.47-.41,5.88,5.88,0,0,0,2.16-1.27,6.36,6.36,0,0,0,1.51-2.21,9,9,0,0,0,.12-6,6.88,6.88,0,0,0-1.32-2.28,6.56,6.56,0,0,0-2.11-1.58,7.55,7.55,0,0,0-2.83-.7H11.08V124Z" transform="translate(0 -2.93)"/><path class="cls-2" d="M47.84,108.58v3.55h8.88a.67.67,0,0,1,.48.26,1,1,0,0,1,.24.7V121a.73.73,0,0,1-.24.53.69.69,0,0,1-.48.24H47.84v3.74H60.45a.91.91,0,0,1,.53.17.68.68,0,0,1,.24.6v7.92a.68.68,0,0,1-.24.6.9.9,0,0,1-.53.17H37.28a.85.85,0,0,1-1-1V99.9a.85.85,0,0,1,1-1H60.45a.83.83,0,0,1,.77.77v7.92a1,1,0,0,1-.24.7.7.7,0,0,1-.53.26Z" transform="translate(0 -2.93)"/><path class="cls-2" d="M111.39,99.2a.82.82,0,0,1,.36.7v34.16a.91.91,0,0,1-.36.62,1.14,1.14,0,0,1-.79.34H102a.84.84,0,0,1-.7-.34,1,1,0,0,1-.26-.62V117.17l-5.66,16.89a2,2,0,0,1-.38.53.73.73,0,0,1-.53.24l-.14.14a.39.39,0,0,1-.24,0H84.2c-.26,0-.38-.06-.38-.19a1.16,1.16,0,0,1-.6-.24,1.42,1.42,0,0,1-.5-.53l-5.47-16.89v16.89a.92.92,0,0,1-.36.62,1.13,1.13,0,0,1-.79.34H67.46a.84.84,0,0,1-.7-.34,1,1,0,0,1-.26-.62V99.9a.85.85,0,0,1,1-1H78a1.45,1.45,0,0,1,1.3,1l9.84,21.78,9.6-21.78a1.81,1.81,0,0,1,1.54-1h10.32A1.31,1.31,0,0,1,111.39,99.2Z" transform="translate(0 -2.93)"/><path class="cls-2" d="M135,98.89A17.58,17.58,0,0,1,141.2,100a15.78,15.78,0,0,1,5.4,3.38,16.93,16.93,0,0,1,3.84,5.64,19.76,19.76,0,0,1,1.46,7.89,20.28,20.28,0,0,1-1.46,8.08,16.14,16.14,0,0,1-3.84,5.57,15.39,15.39,0,0,1-5.4,3.24,19.51,19.51,0,0,1-6.19,1.1h-.19a20,20,0,0,1-6.24-1.1,15.54,15.54,0,0,1-5.47-3.24,16.21,16.21,0,0,1-3.89-5.57,20,20,0,0,1-1.49-8.08,19.47,19.47,0,0,1,1.49-7.89,17,17,0,0,1,3.89-5.64,15.92,15.92,0,0,1,5.47-3.38,18,18,0,0,1,6.24-1.13Zm0,24.76a7.15,7.15,0,0,0,2.33-.38,5.71,5.71,0,0,0,2-1.22,6.15,6.15,0,0,0,1.46-2.11,7.49,7.49,0,0,0,.55-3,7.8,7.8,0,0,0-.55-3.07,6.35,6.35,0,0,0-1.46-2.16,6.15,6.15,0,0,0-2-1.3A6.45,6.45,0,0,0,135,110h-.19a6.64,6.64,0,0,0-2.35.43,5.83,5.83,0,0,0-2,1.3,6.53,6.53,0,0,0-1.44,2.16,7.8,7.8,0,0,0-.55,3.07,7.56,7.56,0,0,0,.43,2.59,5.88,5.88,0,0,0,1.27,2.09,6.57,6.57,0,0,0,2,1.44,6.69,6.69,0,0,0,2.66.6Z" transform="translate(0 -2.93)"/><path class="cls-2" d="M187.36,121.59a1.66,1.66,0,0,1,1.54.62,2.78,2.78,0,0,1,.38,1.49,7.78,7.78,0,0,1-.84,2.83,13.21,13.21,0,0,1-2.66,3.74,16.52,16.52,0,0,1-4.7,3.26,16,16,0,0,1-7,1.39h-.19a18.43,18.43,0,0,1-6.24-1.2,16.2,16.2,0,0,1-5.47-3.41,17.38,17.38,0,0,1-3.91-5.61,19.55,19.55,0,0,1-1.56-7.87v-.19a22,22,0,0,1,1.39-7.05,17,17,0,0,1,3.48-5.64,15.74,15.74,0,0,1,5.4-3.72,19.34,19.34,0,0,1,12-.7,16.46,16.46,0,0,1,3.91,1.68,13.75,13.75,0,0,1,2.9,2.3,16.34,16.34,0,0,1,2,2.5,10.81,10.81,0,0,1,1.13,2.3,5.77,5.77,0,0,1,.36,1.7,2.66,2.66,0,0,1-.38,1.46,1.69,1.69,0,0,1-1.54.6h-7.1a7.49,7.49,0,0,0-2.73-2.42,8.8,8.8,0,0,0-3.65-.94,9.54,9.54,0,0,0-2.81.62,7.26,7.26,0,0,0-2.42,1.54,7.57,7.57,0,0,0-1.7,2.5,8.58,8.58,0,0,0-.65,3.45,8.83,8.83,0,0,0,.53,3.07,7.77,7.77,0,0,0,1.49,2.52,7.05,7.05,0,0,0,2.37,1.73,7.57,7.57,0,0,0,3.19.65,8.49,8.49,0,0,0,3.53-.77,6.84,6.84,0,0,0,2.85-2.45Z" transform="translate(0 -2.93)"/><path class="cls-2" d="M223.68,134.11l.07.22a.55.55,0,0,1,0,.17q0,.58-.62.58H212.21a1.35,1.35,0,0,1-.77-.26,1.11,1.11,0,0,1-.48-.7l-6.62-10.32v10.32a1.1,1.1,0,0,1-.24.62.73.73,0,0,1-.62.34H195a.84.84,0,0,1-.7-.34,1,1,0,0,1-.26-.62V100a.85.85,0,0,1,1-1h14.25a10.79,10.79,0,0,1,4.34.89,11.21,11.21,0,0,1,3.55,2.42,11.69,11.69,0,0,1,2.4,3.57,10.89,10.89,0,0,1,.89,4.39,11.52,11.52,0,0,1-1.61,6.07,10.29,10.29,0,0,1-4.34,4Zm-19.34-20.78H207a2.91,2.91,0,0,0,2-.89,2.84,2.84,0,0,0,.94-2.13,2.59,2.59,0,0,0-.26-1.13,3.46,3.46,0,0,0-.67-1,3.59,3.59,0,0,0-.94-.67,2.45,2.45,0,0,0-1.1-.26h-2.69Z" transform="translate(0 -2.93)"/><path class="cls-2" d="M268.54,134a1.5,1.5,0,0,1,.1.43q0,.58-.62.58h-9.26a1.43,1.43,0,0,1-.84-.29,1.73,1.73,0,0,1-.6-.72l-2.06-4.65H241.48L239.42,134a2.17,2.17,0,0,1-.65.72,1.38,1.38,0,0,1-.79.29h-9.26q-.62,0-.62-.58a1.51,1.51,0,0,1,.1-.43l15.11-33.87a1.61,1.61,0,0,1,.91-.86.77.77,0,0,1,.48-.14h7.39a.86.86,0,0,1,.43.14,2,2,0,0,1,.5.31,1.46,1.46,0,0,1,.41.55ZM251.8,121.59l-3.45-7.73-3.45,7.73Z" transform="translate(0 -2.93)"/><path class="cls-2" d="M299.3,121.59a1.67,1.67,0,0,1,1.54.62,2.78,2.78,0,0,1,.38,1.49,7.76,7.76,0,0,1-.84,2.83,13.19,13.19,0,0,1-2.66,3.74,16.51,16.51,0,0,1-4.7,3.26,16,16,0,0,1-7,1.39h-.19a18.44,18.44,0,0,1-6.24-1.2,16.21,16.21,0,0,1-5.47-3.41,17.36,17.36,0,0,1-3.91-5.61,19.55,19.55,0,0,1-1.56-7.87v-.19a22,22,0,0,1,1.39-7.05,17,17,0,0,1,3.48-5.64,15.73,15.73,0,0,1,5.4-3.72,19.34,19.34,0,0,1,12-.7,16.49,16.49,0,0,1,3.91,1.68,13.8,13.8,0,0,1,2.9,2.3,16.39,16.39,0,0,1,2,2.5,10.87,10.87,0,0,1,1.13,2.3,5.77,5.77,0,0,1,.36,1.7,2.66,2.66,0,0,1-.38,1.46,1.7,1.7,0,0,1-1.54.6h-7.1a7.49,7.49,0,0,0-2.74-2.42,8.79,8.79,0,0,0-3.65-.94,9.54,9.54,0,0,0-2.81.62,7.26,7.26,0,0,0-2.42,1.54,7.58,7.58,0,0,0-1.7,2.5,8.59,8.59,0,0,0-.65,3.45,8.81,8.81,0,0,0,.53,3.07,7.77,7.77,0,0,0,1.49,2.52,7,7,0,0,0,2.37,1.73,7.57,7.57,0,0,0,3.19.65,8.49,8.49,0,0,0,3.53-.77,6.84,6.84,0,0,0,2.85-2.45Z" transform="translate(0 -2.93)"/><path class="cls-2" d="M342,106.66a1.12,1.12,0,0,1-.34.82l-11.9,11.85v14.73a1,1,0,0,1-1,1h-9.59a1,1,0,0,1-1-1V119.33l-11.9-11.85a1.11,1.11,0,0,1-.34-.82.9.9,0,0,1,.24-.67L313,99.23a.91.91,0,0,1,.67-.24,1.11,1.11,0,0,1,.82.34l9.52,9.5,9.48-9.5a1.11,1.11,0,0,1,.82-.34.91.91,0,0,1,.67.24l6.76,6.76A.91.91,0,0,1,342,106.66Z" transform="translate(0 -2.93)"/></g><g id="For"><g class="cls-1"><path class="cls-2" d="M229.26,48.54a.22.22,0,0,1,.07.15v2.37a.22.22,0,0,1-.07.15.22.22,0,0,1-.15.07h-3.62v1.08H228a.21.21,0,0,1,.15.07.21.21,0,0,1,.07.15V54.9a.27.27,0,0,1-.07.19.2.2,0,0,1-.15.08h-2.53v3.57a.28.28,0,0,1-.1.18.31.31,0,0,1-.22.1h-2.8a.25.25,0,0,1-.2-.1.3.3,0,0,1-.08-.18v-10a.25.25,0,0,1,.28-.28h6.75A.22.22,0,0,1,229.26,48.54Z" transform="translate(0 -2.93)"/></g><g class="cls-1"><path class="cls-2" d="M225.76,63.47a5.14,5.14,0,0,1,1.8.33,4.61,4.61,0,0,1,1.57,1,5,5,0,0,1,1.12,1.64,5.77,5.77,0,0,1,.43,2.3,5.92,5.92,0,0,1-.43,2.36,4.71,4.71,0,0,1-1.12,1.62,4.49,4.49,0,0,1-1.57.94,5.72,5.72,0,0,1-1.8.32h-.06a5.85,5.85,0,0,1-1.82-.32,4.53,4.53,0,0,1-1.6-.94,4.73,4.73,0,0,1-1.13-1.62,5.84,5.84,0,0,1-.43-2.36,5.68,5.68,0,0,1,.43-2.3,5,5,0,0,1,1.13-1.64,4.65,4.65,0,0,1,1.6-1,5.25,5.25,0,0,1,1.82-.33Zm0,7.22a2.08,2.08,0,0,0,.68-.11,1.64,1.64,0,0,0,.59-.36,1.79,1.79,0,0,0,.43-.61,2.2,2.2,0,0,0,.16-.87,2.29,2.29,0,0,0-.16-.9,1.85,1.85,0,0,0-.43-.63,1.79,1.79,0,0,0-.59-.38,1.89,1.89,0,0,0-.68-.13h-.06a1.93,1.93,0,0,0-.69.13,1.7,1.7,0,0,0-.59.38,1.89,1.89,0,0,0-.42.63,2.27,2.27,0,0,0-.16.9,2.22,2.22,0,0,0,.13.76,1.7,1.7,0,0,0,.37.61,1.91,1.91,0,0,0,.59.42,2,2,0,0,0,.78.17Z" transform="translate(0 -2.93)"/></g><g class="cls-1"><path class="cls-2" d="M230,88.74l0,.06a.16.16,0,0,1,0,0c0,.11-.06.17-.18.17h-3.19a.4.4,0,0,1-.22-.08.32.32,0,0,1-.14-.2l-1.93-3v3a.32.32,0,0,1-.07.18.21.21,0,0,1-.18.1h-2.46a.25.25,0,0,1-.2-.1.3.3,0,0,1-.08-.18V78.79a.25.25,0,0,1,.28-.28h4.16a3.13,3.13,0,0,1,1.27.26,3.27,3.27,0,0,1,1,.71,3.41,3.41,0,0,1,.7,1,3.17,3.17,0,0,1,.26,1.28,3.36,3.36,0,0,1-.47,1.77,3,3,0,0,1-1.27,1.17Zm-5.64-6.06h.78a.85.85,0,0,0,.59-.26.82.82,0,0,0,.27-.62.77.77,0,0,0-.08-.33,1,1,0,0,0-.2-.28,1.05,1.05,0,0,0-.27-.2.72.72,0,0,0-.32-.08h-.78Z" transform="translate(0 -2.93)"/></g></g></svg>