
<svg width="43px" height="45px" viewBox="0 0 43 45" version="1.1" xmlns="http://www.w3.org/2000/svg" xmlns:xlink="http://www.w3.org/1999/xlink">
    <!-- Generator: Sketch 43.2 (39069) - http://www.bohemiancoding.com/sketch -->
    <desc>Created with Sketch.</desc>
    <defs>
        <path d="M0,13.9975595 C0,6.26692087 6.27557862,0 13.990581,0 L29.009419,0 C36.7362035,0 43,6.26353246 43,13.9975595 L43,29.7191071 C43,37.4497458 36.7244214,43.7166667 29.009419,43.7166667 L0,43.7166667 L0,13.9975595 Z" id="path-1"></path>
    </defs>
    <g id="Page-1" stroke="none" stroke-width="1" fill="none" fill-rule="evenodd">
        <g id="Final-Landing" transform="translate(-1223.000000, -3627.000000)">
            <g id="Social-Media-Icons" transform="translate(1223.000000, 3627.466667)">
                <g id="Facebook-Icon">
                    <g id="Rectangle-7">
                        <use fill="#00BCD4" fill-rule="evenodd" xlink:href="#path-1"></use>
                        <path stroke="#FFFFFF" stroke-width="3" d="M1.5,42.2166667 L1.5,13.9975595 C1.5,7.0994447 7.09990871,1.5 13.990581,1.5 L29.009419,1.5 C35.9088349,1.5 41.5,7.09301857 41.5,13.9975595 L41.5,29.7191071 C41.5,36.617222 35.9000913,42.2166667 29.009419,42.2166667 L1.5,42.2166667 Z"></path>
                    </g>
                    <text id="f" font-family="Avenir-Black, Avenir" font-size="36" font-weight="700" fill="#FFFFFF">
                        <tspan x="22" y="42.1">f</tspan>
                    </text>
                </g>
            </g>
        </g>
    </g>
</svg>
