
<svg width="43px" height="45px" viewBox="0 0 43 45" version="1.1" xmlns="http://www.w3.org/2000/svg" xmlns:xlink="http://www.w3.org/1999/xlink">
    <!-- Generator: Sketch 43.2 (39069) - http://www.bohemiancoding.com/sketch -->
    <desc>Created with Sketch.</desc>
    <defs>
        <path d="M0,13.9975595 C0,6.26692087 6.27557862,0 13.990581,0 L29.009419,0 C36.7362035,0 43,6.26353246 43,13.9975595 L43,29.7191071 C43,37.4497458 36.7244214,43.7166667 29.009419,43.7166667 L0,43.7166667 L0,13.9975595 Z" id="path-1"></path>
    </defs>
    <g id="Page-1" stroke="none" stroke-width="1" fill="none" fill-rule="evenodd">
        <g id="Final-Landing" transform="translate(-1283.000000, -3627.000000)">
            <g id="Social-Media-Icons" transform="translate(1223.000000, 3627.466667)">
                <g id="Twitter-Icon" transform="translate(60.000000, 0.000000)">
                    <g id="Rectangle-7">
                        <use fill="#00BCD4" fill-rule="evenodd" xlink:href="#path-1"></use>
                        <path stroke="#FFFFFF" stroke-width="3" d="M1.5,42.2166667 L1.5,13.9975595 C1.5,7.0994447 7.09990871,1.5 13.990581,1.5 L29.009419,1.5 C35.9088349,1.5 41.5,7.09301857 41.5,13.9975595 L41.5,29.7191071 C41.5,36.617222 35.9000913,42.2166667 29.009419,42.2166667 L1.5,42.2166667 Z"></path>
                    </g>
                    <path d="M31.1782194,15.2281713 C32.0353563,15.1854447 32.8276157,14.8701296 33.6659967,14.6458035 C33.6240637,14.7138442 33.5862728,14.7849604 33.5395926,14.8494524 C32.9707278,15.634854 32.3115743,16.332768 31.5538015,16.9305609 C31.4107359,17.0433154 31.3474873,17.1614639 31.3432987,17.3429689 C31.3174222,18.4630853 31.2553371,19.5810251 31.0056472,20.6769157 C30.1534436,24.4178764 28.2536128,27.452359 25.1060306,29.6251189 C23.4034851,30.8003114 21.5168718,31.5251483 19.472905,31.7540641 C17.3877964,31.9875695 15.3098551,31.9487229 13.2825498,31.2880468 C12.230315,30.9451463 11.2327654,30.4804066 10.273286,29.9273748 C10.1993331,29.8847903 10.1296619,29.8343512 10.059153,29.7858521 C10.0486814,29.77866 10.0447254,29.7617681 10,29.6823715 C12.5987764,29.8817147 14.9449773,29.2681182 17.0670857,27.6462135 C14.8771678,27.3884821 13.3496612,26.3041841 12.5545163,24.1823364 C13.2700769,24.1960108 13.9338844,24.2616383 14.5940618,24.0702916 C13.50385,23.7619319 12.5879324,23.1785232 11.902437,22.2780013 C11.2175467,21.378331 10.8128303,20.3587615 10.8602551,19.132988 C11.5167557,19.4811406 12.1923845,19.6765092 12.9596051,19.7390139 C10.8162743,17.9004483 10.3910335,15.713115 11.4884591,13.1174902 C11.9128156,13.5396927 12.2930982,13.9161403 12.6713331,14.2946226 C15.1000038,16.7247354 18.0352682,18.0076668 21.4141103,18.2861227 C21.466003,18.2904285 21.5185473,18.2866905 21.5347434,18.2866905 C21.5347434,17.8636363 21.5410264,17.4573794 21.5337195,17.0513591 C21.4945324,14.8671013 23.1625913,12.7344656 25.4578304,12.2992038 C27.0150764,12.0039507 28.4517359,12.3601471 29.6496424,13.4699486 C29.8978896,13.6999053 30.1419481,13.7798697 30.4491156,13.6617685 C31.1435002,13.3948578 31.8373729,13.1265276 32.5300355,12.8549799 C32.6995827,12.7885007 32.8634519,12.7072587 33.0871256,12.6072796 C32.6921362,13.7165606 32.0262344,14.5313929 31.1782194,15.2281713 Z" id="Page-1" fill="#FFFFFF"></path>
                </g>
            </g>
        </g>
    </g>
</svg>
