
<svg width="91px" height="84px" viewBox="0 0 91 84" version="1.1" xmlns="http://www.w3.org/2000/svg" xmlns:xlink="http://www.w3.org/1999/xlink">
    <!-- Generator: Sketch 43.2 (39069) - http://www.bohemiancoding.com/sketch -->
    <desc>Created with Sketch.</desc>
    <defs></defs>
    <g id="Page-1" stroke="none" stroke-width="1" fill="none" fill-rule="evenodd">
        <g id="Desktop" transform="translate(-176.000000, -945.000000)" fill="#FFC107">
            <g id="Group-4" transform="translate(92.000000, 941.000000)">
                <g id="Group-3">
                    <g id="Required-Reading" transform="translate(0.000000, 4.000000)">
                        <g id="Group-2">
                            <path d="M149.344313,27.2574537 C150.138719,26.8658523 151.223934,26.574707 151.971793,25.9048508 C153.068977,24.922069 153.954704,23.6921471 154.87235,22.5217878 C155.438452,21.799481 155.216356,21.0247235 154.392692,20.5895615 C154.054005,20.4108739 153.686947,20.2637455 153.315456,20.1726237 C144.783129,18.0852681 136.252576,15.9890225 127.710497,13.9425606 C125.8127,13.4878406 124.125918,13.9212247 122.877566,15.5845307 C122.271122,16.3930699 121.582223,17.1393795 120.934552,17.9172484 C119.926029,19.1276124 120.1233,19.9237057 121.57513,20.4846603 C121.823382,20.5806715 122.082717,20.6513465 122.341608,20.714465 C129.604747,22.496007 136.867443,24.2788825 144.132798,26.0515346 C145.773477,26.4515815 147.423465,26.8142907 149.344313,27.2574537 L149.344313,27.2574537 Z M84,54.699335 C84.4149352,52.606201 84.7372193,50.4890641 85.2665276,48.4257112 C86.0396547,45.4133583 87.4937011,42.7592697 89.5976353,40.421218 C101.054457,27.6872818 112.498423,14.9408997 123.869686,2.13051016 C125.586614,0.196505826 127.31817,-0.362226294 129.837483,0.217841659 C143.729832,3.41688308 157.650997,6.4879095 171.563295,9.59716263 C175.078275,10.3830325 176.080148,13.442502 173.712003,16.1770445 C161.65982,30.0942304 149.611184,44.0145278 137.556785,57.9303802 C137.148499,58.401991 136.744647,58.8993826 136.254793,59.2745377 C135.151845,60.120859 133.919896,60.1346384 132.612584,59.7590389 C120.966913,56.4128691 109.315923,53.0853682 97.6658197,49.7543113 C97.2956585,49.6485211 96.9228374,49.5329521 96.5433668,49.4827239 C93.5599118,49.0875665 91.8412112,50.3308233 91.2728919,53.3267298 C90.7768315,55.9381468 90.8894314,58.5068922 92.1422166,60.9049509 C93.2425041,63.0118644 94.8441717,64.5009277 97.2238427,65.2005652 C109.731302,68.8796629 122.220142,72.621879 134.708982,76.3636507 C135.314982,76.5454498 135.654112,76.4414376 136.057078,75.9533804 C146.208361,63.6666077 156.372943,51.390503 166.554814,39.1286221 C167.055751,38.5254403 167.203372,37.9964895 167.056194,37.2061747 C166.521566,34.3391722 166.758292,31.5121743 167.750856,28.7562959 C168.373259,27.0289825 169.85745,25.9693028 171.464881,26.137767 C173.070538,26.3062311 174.359675,27.534375 174.548967,29.2327962 C174.619009,29.8582028 174.493996,30.5476169 174.292735,31.1525766 C173.568815,33.3292761 173.565269,35.4797502 174.337952,37.6342248 C174.886766,39.1641818 174.484244,40.4727796 173.478381,41.6844771 C167.105845,49.3649324 160.744392,57.0542776 154.379392,64.7409558 C149.534492,70.5918635 144.673633,76.4298807 139.854887,82.3025687 C138.563091,83.8765308 137.069591,84.3410297 135.119041,83.7578502 C121.547202,79.6987081 107.958518,75.6955724 94.3915554,71.6186504 C90.495775,70.4478466 87.8842544,67.6817448 85.9784784,64.1964476 C84.9686254,62.3491201 84.4224714,60.3399958 84.1804259,58.2473062 C84.1467346,57.9566055 84.0611763,57.6721277 84,57.3845385 L84,54.699335 Z" id="Fill-4"></path>
                        </g>
                    </g>
                </g>
            </g>
        </g>
    </g>
</svg>
