
<svg width="91px" height="91px" viewBox="0 0 91 91" version="1.1" xmlns="http://www.w3.org/2000/svg" xmlns:xlink="http://www.w3.org/1999/xlink">
    <!-- Generator: Sketch 43.2 (39069) - http://www.bohemiancoding.com/sketch -->
    <desc>Created with Sketch.</desc>
    <defs></defs>
    <g id="Page-1" stroke="none" stroke-width="1" fill="none" fill-rule="evenodd">
        <g id="Desktop" transform="translate(-466.000000, -941.000000)" fill="#FFC107">
            <g id="Group-4" transform="translate(92.000000, 941.000000)">
                <g id="Group-3">
                    <g id="About-RAD" transform="translate(290.000000, 0.000000)">
                        <path d="M109.748317,12.3388905 C106.404651,10.6824622 102.989616,9.17790629 99.1663194,8.93349345 C94.986182,8.66649898 92.4758832,11.1863423 92.7985916,15.3515444 C92.8805985,16.4119951 93.0627869,17.4768735 93.3194465,18.509872 C94.5225104,23.3582789 96.8869698,27.6890797 99.5346857,31.8578241 C107.699917,44.713851 117.845283,55.8501326 129.399396,65.7218433 C135.884149,71.2623105 142.751011,76.2612616 150.714107,79.5404672 C154.270548,81.0047304 157.93382,81.9000252 161.83868,81.5316349 C163.372875,81.3868468 164.294899,80.7541186 164.818856,79.2464633 C166.150028,75.4142294 165.137575,68.355923 162.64944,65.025798 C161.49824,66.6069543 160.46584,68.2895065 159.177222,69.7462424 C155.398254,74.0185966 156.975004,73.4921349 151.985879,71.4274663 C151.657408,71.2915338 151.347555,71.110438 151.030166,70.9483817 C138.063761,64.3235539 127.33548,54.9110028 117.746875,44.1214156 C111.482431,37.0715219 105.998605,29.4747989 102.117239,20.8083268 C101.624754,19.7089118 101.621208,18.9907277 102.59155,18.2167537 C104.954236,16.3318525 107.266832,14.3840769 109.748317,12.3388905 L109.748317,12.3388905 Z M167.87705,45.577266 C167.789724,47.0601258 167.942656,48.6085165 167.561878,50.0121193 C166.880555,52.527092 167.661616,54.5457118 168.83232,56.7135475 C171.866577,62.3315006 174.261623,68.2160055 174.876896,74.6522103 C175.051106,76.4742372 175.03958,78.3454124 174.84764,80.1661109 C174.215965,86.1511261 170.165265,90.1507298 164.202253,90.8312779 C158.546434,91.4768466 153.18318,90.2056341 148.011424,88.1135133 C144.769269,86.8020082 141.680488,85.115471 138.486651,83.6768889 C137.788927,83.3625173 136.907685,83.1783221 136.16253,83.2872452 C115.320356,86.3269086 96.8271269,74.0509193 92.1287944,54.0028674 C90.9886763,49.1385205 90.9638526,44.2405225 91.6035067,39.2986897 C91.7351611,38.2816312 91.5489832,37.055582 91.0737862,36.1554166 C87.9508734,30.2434595 85.1808121,24.1999978 84.2778493,17.5131812 C83.9635632,15.1832892 83.8735772,12.730748 84.2313048,10.4194527 C85.3120232,3.4417317 90.4208337,-0.251470326 98.1130844,0.013310253 C105.185629,0.257280319 111.621622,2.69609542 117.734463,5.95758998 C120.371097,7.36429216 122.783431,7.79954184 125.781338,7.44797699 C144.762176,5.21992368 163.064795,18.5532641 166.930203,37.2663438 C167.492283,39.9876505 167.689542,42.7842294 168.055692,45.5458288 L167.87705,45.577266 Z" id="Fill-6"></path>
                    </g>
                </g>
            </g>
        </g>
    </g>
</svg>
