
<svg width="86px" height="86px" viewBox="0 0 86 86" version="1.1" xmlns="http://www.w3.org/2000/svg" xmlns:xlink="http://www.w3.org/1999/xlink">
    <!-- Generator: Sketch 43.2 (39069) - http://www.bohemiancoding.com/sketch -->
    <desc>Created with Sketch.</desc>
    <defs></defs>
    <g id="Page-1" stroke="none" stroke-width="1" fill="none" fill-rule="evenodd">
        <g id="Desktop" transform="translate(-759.000000, -944.000000)" fill="#FFC107">
            <g id="Group-4" transform="translate(92.000000, 941.000000)">
                <g id="Group-3">
                    <g id="Get-In-Touch" transform="translate(580.000000, 3.000000)">
                        <path d="M164.850065,9.58636196 C142.727547,21.5864357 120.833106,33.4631783 98.7790549,45.425852 C99.2236482,45.5727808 99.477511,45.662719 99.7353751,45.7406358 C104.262669,47.1039567 108.795297,48.4503586 113.31281,49.8457367 C113.976143,50.0505465 114.436297,49.9601631 114.99115,49.5625649 C128.407197,39.9422921 141.837027,30.340274 155.264634,20.736475 C155.522498,20.5521462 155.789254,20.3807293 156.051564,20.2035243 C156.080018,20.2364719 156.108472,20.2694196 156.136926,20.3023673 C147.213049,32.7214106 138.288728,45.140454 129.459994,57.4272615 C135.758992,63.7322869 141.97574,69.9553883 148.219164,76.2052041 C153.730342,54.1293783 159.257082,31.9907739 164.850065,9.58636196 L164.850065,9.58636196 Z M87,46.1987864 C87.2800938,44.4200578 88.5405158,43.5576304 90.0032277,42.7655507 C115.910569,28.7360789 141.804572,14.6812285 167.701687,0.632611481 C169.683684,-0.442640007 171.410929,-0.139432444 172.50285,1.48301742 C173.132838,2.41890919 173.074597,3.44518442 172.817622,4.47724775 C170.196744,14.9986837 167.572755,25.5196745 164.946987,36.04022 C161.04568,51.6716607 157.141707,67.3022109 153.24129,82.9332063 C152.744234,84.924759 151.82526,85.8281484 150.074452,85.9875439 C148.875828,86.0966273 148.000424,85.4750741 147.205491,84.678542 C141.300847,78.76221 135.393536,72.8485495 129.489782,66.931327 C129.27282,66.7136053 129.08209,66.4696145 128.813555,66.1623998 C128.563249,66.4878693 128.375631,66.7162767 128.204907,66.9567056 C125.071858,71.3699117 121.948146,75.7897964 118.80087,80.1932073 C118.364279,80.8040748 117.874782,81.4042566 117.307036,81.8895668 C115.740289,83.2288448 114.211778,82.6981203 113.78319,80.6678317 C113.545777,79.5462754 113.414177,78.400231 113.271018,77.2604199 C112.405395,70.3890508 111.545996,63.5167913 110.698601,56.6431961 C110.626133,56.055481 110.430512,55.7406972 109.796966,55.5541422 C103.436614,53.6787968 97.1007152,51.7206369 90.7323608,49.874232 C88.8904107,49.3399455 87.4205853,48.5745802 87,46.5358321 L87,46.1987864 Z" id="Fill-1"></path>
                    </g>
                </g>
            </g>
        </g>
    </g>
</svg>
